<svg xmlns="http://www.w3.org/2000/svg" xmlns:xlink="http://www.w3.org/1999/xlink" width="1920" zoomAndPan="magnify" viewBox="0 0 1440 809.999993" height="1080" preserveAspectRatio="xMidYMid meet" version="1.0"><defs><filter x="0%" y="0%" width="100%" height="100%" id="173494d96a"><feColorMatrix values="0 0 0 0 1 0 0 0 0 1 0 0 0 0 1 0 0 0 1 0" color-interpolation-filters="sRGB"/></filter><g/><mask id="ab5d13f3f8"><g filter="url(#173494d96a)"><rect x="-144" width="1728" fill="#000000" y="-80.999999" height="971.999992" fill-opacity="0.26"/></g></mask><clipPath id="9a32c81316"><path d="M 0 0.722656 L 529.210938 0.722656 L 529.210938 438 L 0 438 Z M 0 0.722656 " clip-rule="nonzero"/></clipPath><clipPath id="27fa365645"><path d="M 148.546875 0.722656 C -61.691406 0.722656 -232.117188 171.148438 -232.117188 381.386719 C -232.117188 591.621094 -61.691406 762.050781 148.546875 762.050781 C 358.78125 762.050781 529.210938 591.621094 529.210938 381.386719 C 529.210938 171.148438 358.78125 0.722656 148.546875 0.722656 Z M 148.546875 0.722656 " clip-rule="nonzero"/></clipPath><clipPath id="4dee95bc20"><rect x="0" width="530" y="0" height="438"/></clipPath><mask id="61dd140314"><g filter="url(#173494d96a)"><rect x="-144" width="1728" fill="#000000" y="-80.999999" height="971.999992" fill-opacity="0.26"/></g></mask><clipPath id="cb02c21c30"><path d="M 0.433594 0.0078125 L 418 0.0078125 L 418 417.574219 L 0.433594 417.574219 Z M 0.433594 0.0078125 " clip-rule="nonzero"/></clipPath><clipPath id="c02b1585ac"><path d="M 209.21875 0.0078125 C 93.910156 0.0078125 0.433594 93.484375 0.433594 208.792969 C 0.433594 324.097656 93.910156 417.574219 209.21875 417.574219 C 324.523438 417.574219 418 324.097656 418 208.792969 C 418 93.484375 324.523438 0.0078125 209.21875 0.0078125 Z M 209.21875 0.0078125 " clip-rule="nonzero"/></clipPath><clipPath id="dac5eb725e"><rect x="0" width="419" y="0" height="418"/></clipPath><mask id="b758e46de2"><g filter="url(#173494d96a)"><rect x="-144" width="1728" fill="#000000" y="-80.999999" height="971.999992" fill-opacity="0.26"/></g></mask><clipPath id="73dae8c3a3"><path d="M 0.707031 0.472656 L 101.726562 0.472656 L 101.726562 101.488281 L 0.707031 101.488281 Z M 0.707031 0.472656 " clip-rule="nonzero"/></clipPath><clipPath id="51cf908d59"><path d="M 51.21875 0.472656 C 23.320312 0.472656 0.707031 23.085938 0.707031 50.980469 C 0.707031 78.875 23.320312 101.488281 51.21875 101.488281 C 79.113281 101.488281 101.726562 78.875 101.726562 50.980469 C 101.726562 23.085938 79.113281 0.472656 51.21875 0.472656 Z M 51.21875 0.472656 " clip-rule="nonzero"/></clipPath><clipPath id="f2f52c037f"><rect x="0" width="102" y="0" height="102"/></clipPath><mask id="732fe104ab"><g filter="url(#173494d96a)"><rect x="-144" width="1728" fill="#000000" y="-80.999999" height="971.999992" fill-opacity="0.26"/></g></mask><clipPath id="231b8be20d"><path d="M 0.683594 0.238281 L 101.703125 0.238281 L 101.703125 101.257812 L 0.683594 101.257812 Z M 0.683594 0.238281 " clip-rule="nonzero"/></clipPath><clipPath id="1742a21004"><path d="M 51.191406 0.238281 C 23.296875 0.238281 0.683594 22.851562 0.683594 50.746094 C 0.683594 78.644531 23.296875 101.257812 51.191406 101.257812 C 79.085938 101.257812 101.703125 78.644531 101.703125 50.746094 C 101.703125 22.851562 79.085938 0.238281 51.191406 0.238281 Z M 51.191406 0.238281 " clip-rule="nonzero"/></clipPath><clipPath id="b59907c726"><rect x="0" width="102" y="0" height="102"/></clipPath><clipPath id="6039af59ec"><path d="M 70.328125 206.984375 L 1369.796875 206.984375 L 1369.796875 603.015625 L 70.328125 603.015625 Z M 70.328125 206.984375 " clip-rule="nonzero"/></clipPath><clipPath id="0f11f7a550"><path d="M 1329.601562 603.015625 L 110.398438 603.015625 C 88.320312 603.015625 70.328125 585.023438 70.328125 562.941406 L 70.328125 247.058594 C 70.328125 224.976562 88.320312 206.984375 110.398438 206.984375 L 1329.601562 206.984375 C 1351.679688 206.984375 1369.671875 224.976562 1369.671875 247.058594 L 1369.671875 562.941406 C 1369.671875 585.023438 1351.679688 603.015625 1329.601562 603.015625 Z M 1329.601562 603.015625 " clip-rule="nonzero"/></clipPath><clipPath id="ce06b286bc"><path d="M 1342 522 L 1436 522 L 1436 658 L 1342 658 Z M 1342 522 " clip-rule="nonzero"/></clipPath><clipPath id="77116229a4"><path d="M 1348.578125 507.394531 L 1450.8125 539.804688 L 1390.746094 729.261719 L 1288.511719 696.851562 Z M 1348.578125 507.394531 " clip-rule="nonzero"/></clipPath><clipPath id="8cde7a171c"><path d="M 1348.578125 507.394531 L 1450.8125 539.804688 L 1390.746094 729.261719 L 1288.511719 696.851562 Z M 1348.578125 507.394531 " clip-rule="nonzero"/></clipPath><clipPath id="d172815782"><path d="M 1325 678 L 1357 678 L 1357 710 L 1325 710 Z M 1325 678 " clip-rule="nonzero"/></clipPath><clipPath id="6b6c77352e"><path d="M 1348.578125 507.394531 L 1450.8125 539.804688 L 1390.746094 729.261719 L 1288.511719 696.851562 Z M 1348.578125 507.394531 " clip-rule="nonzero"/></clipPath><clipPath id="732ee114d8"><path d="M 1348.578125 507.394531 L 1450.8125 539.804688 L 1390.746094 729.261719 L 1288.511719 696.851562 Z M 1348.578125 507.394531 " clip-rule="nonzero"/></clipPath><clipPath id="88c2024f44"><path d="M 1339 519 L 1439 519 L 1439 660 L 1339 660 Z M 1339 519 " clip-rule="nonzero"/></clipPath><clipPath id="7ac6e12689"><path d="M 1348.578125 507.394531 L 1450.8125 539.804688 L 1390.746094 729.261719 L 1288.511719 696.851562 Z M 1348.578125 507.394531 " clip-rule="nonzero"/></clipPath><clipPath id="11bcd00d2e"><path d="M 1348.578125 507.394531 L 1450.8125 539.804688 L 1390.746094 729.261719 L 1288.511719 696.851562 Z M 1348.578125 507.394531 " clip-rule="nonzero"/></clipPath><clipPath id="ef2a5659a6"><path d="M 1322 675 L 1360 675 L 1360 713 L 1322 713 Z M 1322 675 " clip-rule="nonzero"/></clipPath><clipPath id="855e99eec5"><path d="M 1348.578125 507.394531 L 1450.8125 539.804688 L 1390.746094 729.261719 L 1288.511719 696.851562 Z M 1348.578125 507.394531 " clip-rule="nonzero"/></clipPath><clipPath id="6ce11721d4"><path d="M 1348.578125 507.394531 L 1450.8125 539.804688 L 1390.746094 729.261719 L 1288.511719 696.851562 Z M 1348.578125 507.394531 " clip-rule="nonzero"/></clipPath><clipPath id="9b28fe7d98"><path d="M 1334 686 L 1349 686 L 1349 702 L 1334 702 Z M 1334 686 " clip-rule="nonzero"/></clipPath><clipPath id="c3b8a24cae"><path d="M 1348.578125 507.394531 L 1450.8125 539.804688 L 1390.746094 729.261719 L 1288.511719 696.851562 Z M 1348.578125 507.394531 " clip-rule="nonzero"/></clipPath><clipPath id="9efa6a13e9"><path d="M 1348.578125 507.394531 L 1450.8125 539.804688 L 1390.746094 729.261719 L 1288.511719 696.851562 Z M 1348.578125 507.394531 " clip-rule="nonzero"/></clipPath><clipPath id="0df6b705b4"><path d="M 1334 687 L 1339 687 L 1339 693 L 1334 693 Z M 1334 687 " clip-rule="nonzero"/></clipPath><clipPath id="2f89627ae3"><path d="M 1348.578125 507.394531 L 1450.8125 539.804688 L 1390.746094 729.261719 L 1288.511719 696.851562 Z M 1348.578125 507.394531 " clip-rule="nonzero"/></clipPath><clipPath id="17710d80e2"><path d="M 1348.578125 507.394531 L 1450.8125 539.804688 L 1390.746094 729.261719 L 1288.511719 696.851562 Z M 1348.578125 507.394531 " clip-rule="nonzero"/></clipPath><clipPath id="0ce08db916"><path d="M 1394 533 L 1400 533 L 1400 537 L 1394 537 Z M 1394 533 " clip-rule="nonzero"/></clipPath><clipPath id="eb679178a6"><path d="M 1348.578125 507.394531 L 1450.8125 539.804688 L 1390.746094 729.261719 L 1288.511719 696.851562 Z M 1348.578125 507.394531 " clip-rule="nonzero"/></clipPath><clipPath id="d90e955d73"><path d="M 1348.578125 507.394531 L 1450.8125 539.804688 L 1390.746094 729.261719 L 1288.511719 696.851562 Z M 1348.578125 507.394531 " clip-rule="nonzero"/></clipPath><clipPath id="7b7499c79c"><path d="M 1401 536 L 1414 536 L 1414 546 L 1401 546 Z M 1401 536 " clip-rule="nonzero"/></clipPath><clipPath id="a75f688b67"><path d="M 1348.578125 507.394531 L 1450.8125 539.804688 L 1390.746094 729.261719 L 1288.511719 696.851562 Z M 1348.578125 507.394531 " clip-rule="nonzero"/></clipPath><clipPath id="a633ea82a6"><path d="M 1348.578125 507.394531 L 1450.8125 539.804688 L 1390.746094 729.261719 L 1288.511719 696.851562 Z M 1348.578125 507.394531 " clip-rule="nonzero"/></clipPath><clipPath id="86039039f2"><path d="M 1401 551 L 1428 551 L 1428 610 L 1401 610 Z M 1401 551 " clip-rule="nonzero"/></clipPath><clipPath id="c702488e97"><path d="M 1348.578125 507.394531 L 1450.8125 539.804688 L 1390.746094 729.261719 L 1288.511719 696.851562 Z M 1348.578125 507.394531 " clip-rule="nonzero"/></clipPath><clipPath id="7bf071831f"><path d="M 1348.578125 507.394531 L 1450.8125 539.804688 L 1390.746094 729.261719 L 1288.511719 696.851562 Z M 1348.578125 507.394531 " clip-rule="nonzero"/></clipPath><clipPath id="aebb211c5c"><path d="M 43 135 L 180 135 L 180 316 L 43 316 Z M 43 135 " clip-rule="nonzero"/></clipPath><clipPath id="dd8b808152"><path d="M 35.59375 150.003906 L 127.621094 115.59375 L 197.757812 303.160156 L 105.730469 337.570312 Z M 35.59375 150.003906 " clip-rule="nonzero"/></clipPath><clipPath id="d8a0ce3119"><path d="M 127.433594 115.664062 L 35.40625 150.074219 L 105.542969 337.640625 L 197.570312 303.226562 Z M 127.433594 115.664062 " clip-rule="nonzero"/></clipPath><clipPath id="3efd90ce22"><path d="M 55 131 L 191 131 L 191 311 L 55 311 Z M 55 131 " clip-rule="nonzero"/></clipPath><clipPath id="7fec1e975f"><path d="M 35.59375 150.003906 L 127.621094 115.59375 L 197.757812 303.160156 L 105.730469 337.570312 Z M 35.59375 150.003906 " clip-rule="nonzero"/></clipPath><clipPath id="dce11b42a3"><path d="M 127.433594 115.664062 L 35.40625 150.074219 L 105.542969 337.640625 L 197.570312 303.226562 Z M 127.433594 115.664062 " clip-rule="nonzero"/></clipPath><clipPath id="d402ead736"><path d="M 143 270 L 192 270 L 192 314 L 143 314 Z M 143 270 " clip-rule="nonzero"/></clipPath><clipPath id="dd2f77d65e"><path d="M 35.59375 150.003906 L 127.621094 115.59375 L 197.757812 303.160156 L 105.730469 337.570312 Z M 35.59375 150.003906 " clip-rule="nonzero"/></clipPath><clipPath id="9f5dd3903b"><path d="M 127.433594 115.664062 L 35.40625 150.074219 L 105.542969 337.640625 L 197.570312 303.226562 Z M 127.433594 115.664062 " clip-rule="nonzero"/></clipPath><clipPath id="5c88d4d17f"><path d="M 55 130 L 171 130 L 171 279 L 55 279 Z M 55 130 " clip-rule="nonzero"/></clipPath><clipPath id="db42698b06"><path d="M 35.59375 150.003906 L 127.621094 115.59375 L 197.757812 303.160156 L 105.730469 337.570312 Z M 35.59375 150.003906 " clip-rule="nonzero"/></clipPath><clipPath id="9bdd54c60d"><path d="M 127.433594 115.664062 L 35.40625 150.074219 L 105.542969 337.640625 L 197.570312 303.226562 Z M 127.433594 115.664062 " clip-rule="nonzero"/></clipPath></defs><rect x="-144" width="1728" fill="#ffffff" y="-80.999999" height="971.999992" fill-opacity="1"/><rect x="-144" width="1728" fill="#170351" y="-80.999999" height="971.999992" fill-opacity="1"/><g mask="url(#ab5d13f3f8)"><g transform="matrix(1, 0, 0, 1, 0, 372)"><g clip-path="url(#4dee95bc20)"><g clip-path="url(#9a32c81316)"><g clip-path="url(#27fa365645)"><path fill="#5590b4" d="M -232.117188 0.722656 L 529.210938 0.722656 L 529.210938 762.050781 L -232.117188 762.050781 Z M -232.117188 0.722656 " fill-opacity="1" fill-rule="nonzero"/></g></g></g></g></g><g mask="url(#61dd140314)"><g transform="matrix(1, 0, 0, 1, 941, 18)"><g clip-path="url(#dac5eb725e)"><g clip-path="url(#cb02c21c30)"><g clip-path="url(#c02b1585ac)"><path fill="#5590b4" d="M 0.433594 0.0078125 L 418 0.0078125 L 418 417.574219 L 0.433594 417.574219 Z M 0.433594 0.0078125 " fill-opacity="1" fill-rule="nonzero"/></g></g></g></g></g><g mask="url(#b758e46de2)"><g transform="matrix(1, 0, 0, 1, 1099, 589)"><g clip-path="url(#f2f52c037f)"><g clip-path="url(#73dae8c3a3)"><g clip-path="url(#51cf908d59)"><path fill="#5590b4" d="M 0.707031 0.472656 L 101.726562 0.472656 L 101.726562 101.488281 L 0.707031 101.488281 Z M 0.707031 0.472656 " fill-opacity="1" fill-rule="nonzero"/></g></g></g></g></g><g mask="url(#732fe104ab)"><g transform="matrix(1, 0, 0, 1, 369, 54)"><g clip-path="url(#b59907c726)"><g clip-path="url(#231b8be20d)"><g clip-path="url(#1742a21004)"><path fill="#5590b4" d="M 0.683594 0.238281 L 101.703125 0.238281 L 101.703125 101.257812 L 0.683594 101.257812 Z M 0.683594 0.238281 " fill-opacity="1" fill-rule="nonzero"/></g></g></g></g></g><g clip-path="url(#6039af59ec)"><g clip-path="url(#0f11f7a550)"><path fill="#ffffff" d="M 70.328125 206.984375 L 1369.796875 206.984375 L 1369.796875 603.015625 L 70.328125 603.015625 Z M 70.328125 206.984375 " fill-opacity="1" fill-rule="nonzero"/></g></g><g clip-path="url(#ce06b286bc)"><g clip-path="url(#77116229a4)"><g clip-path="url(#8cde7a171c)"><path fill="#b2061a" d="M 1352.929688 656.726562 C 1346.054688 654.546875 1342.25 647.207031 1344.429688 640.332031 L 1346.007812 635.351562 C 1353.507812 611.699219 1370.488281 604.140625 1384.136719 598.066406 C 1395.984375 592.792969 1404.546875 588.980469 1408.730469 575.78125 C 1411.726562 566.335938 1402.855469 554.742188 1389.359375 550.460938 C 1372.421875 545.089844 1366.351562 552.320312 1366.304688 552.394531 C 1362.316406 558.410156 1354.222656 560.050781 1348.203125 556.066406 C 1342.195312 552.082031 1340.546875 543.980469 1344.53125 537.96875 C 1350.453125 529.03125 1368.226562 516.363281 1397.253906 525.566406 C 1424.710938 534.269531 1441.027344 560.339844 1433.628906 583.675781 C 1425.894531 608.070312 1408.628906 615.753906 1394.753906 621.929688 C 1381.679688 627.746094 1374.679688 631.339844 1370.90625 643.246094 L 1369.324219 648.222656 C 1367.148438 655.097656 1359.808594 658.90625 1352.929688 656.726562 Z M 1352.929688 656.726562 " fill-opacity="1" fill-rule="nonzero"/></g></g></g><g clip-path="url(#d172815782)"><g clip-path="url(#6b6c77352e)"><g clip-path="url(#732ee114d8)"><path fill="#b2061a" d="M 1356.03125 698.804688 C 1355.71875 699.785156 1355.316406 700.726562 1354.820312 701.628906 C 1354.320312 702.53125 1353.742188 703.375 1353.078125 704.160156 C 1352.417969 704.949219 1351.683594 705.664062 1350.878906 706.308594 C 1350.078125 706.949219 1349.21875 707.507812 1348.304688 707.980469 C 1347.390625 708.457031 1346.441406 708.835938 1345.453125 709.121094 C 1344.464844 709.40625 1343.457031 709.59375 1342.433594 709.683594 C 1341.40625 709.769531 1340.382812 709.757812 1339.359375 709.644531 C 1338.339844 709.53125 1337.335938 709.320312 1336.355469 709.007812 C 1335.375 708.695312 1334.433594 708.292969 1333.53125 707.796875 C 1332.632812 707.300781 1331.785156 706.722656 1331 706.058594 C 1330.210938 705.394531 1329.496094 704.664062 1328.855469 703.859375 C 1328.210938 703.054688 1327.652344 702.199219 1327.179688 701.285156 C 1326.707031 700.371094 1326.328125 699.417969 1326.039062 698.429688 C 1325.753906 697.441406 1325.566406 696.4375 1325.480469 695.410156 C 1325.390625 694.386719 1325.402344 693.363281 1325.515625 692.339844 C 1325.628906 691.316406 1325.84375 690.316406 1326.152344 689.335938 C 1326.464844 688.355469 1326.867188 687.414062 1327.363281 686.511719 C 1327.859375 685.609375 1328.441406 684.765625 1329.101562 683.980469 C 1329.765625 683.191406 1330.5 682.476562 1331.300781 681.832031 C 1332.105469 681.191406 1332.964844 680.632812 1333.878906 680.160156 C 1334.792969 679.683594 1335.742188 679.304688 1336.730469 679.019531 C 1337.71875 678.734375 1338.726562 678.546875 1339.75 678.457031 C 1340.777344 678.371094 1341.800781 678.382812 1342.824219 678.496094 C 1343.84375 678.609375 1344.847656 678.820312 1345.828125 679.132812 C 1346.808594 679.445312 1347.75 679.847656 1348.652344 680.34375 C 1349.550781 680.839844 1350.394531 681.417969 1351.183594 682.082031 C 1351.96875 682.746094 1352.683594 683.476562 1353.328125 684.28125 C 1353.972656 685.085938 1354.527344 685.941406 1355.003906 686.855469 C 1355.476562 687.769531 1355.855469 688.722656 1356.144531 689.710938 C 1356.429688 690.699219 1356.617188 691.703125 1356.703125 692.730469 C 1356.792969 693.753906 1356.78125 694.777344 1356.667969 695.800781 C 1356.550781 696.824219 1356.339844 697.824219 1356.03125 698.804688 Z M 1356.03125 698.804688 " fill-opacity="1" fill-rule="nonzero"/></g></g></g><g clip-path="url(#88c2024f44)"><g clip-path="url(#7ac6e12689)"><g clip-path="url(#11bcd00d2e)"><path fill="#1f212b" d="M 1352.140625 659.214844 C 1343.902344 656.605469 1339.328125 647.78125 1341.941406 639.542969 L 1343.519531 634.5625 C 1351.375 609.789062 1368.953125 601.96875 1383.074219 595.679688 C 1394.71875 590.5 1402.410156 587.074219 1406.242188 574.992188 C 1408.765625 567.035156 1400.507812 556.734375 1388.570312 552.953125 C 1374.566406 548.511719 1368.988281 553.398438 1368.359375 554.011719 C 1363.554688 561.066406 1353.910156 562.984375 1346.757812 558.242188 C 1339.554688 553.464844 1337.582031 543.722656 1342.351562 536.523438 C 1348.683594 526.976562 1367.535156 513.402344 1398.042969 523.078125 C 1426.871094 532.214844 1443.953125 559.753906 1436.117188 584.464844 C 1428.03125 609.972656 1410.171875 617.921875 1395.824219 624.3125 C 1383.101562 629.972656 1376.835938 633.171875 1373.394531 644.035156 L 1371.816406 649.015625 C 1369.203125 657.253906 1360.378906 661.828125 1352.140625 659.214844 Z M 1390.152344 547.972656 C 1404.996094 552.679688 1414.644531 565.777344 1411.222656 576.570312 C 1406.679688 590.890625 1397.199219 595.109375 1385.199219 600.453125 C 1372.03125 606.3125 1355.644531 613.605469 1348.496094 636.140625 L 1346.917969 641.121094 C 1345.179688 646.613281 1348.226562 652.496094 1353.71875 654.238281 C 1359.210938 655.976562 1365.09375 652.925781 1366.835938 647.433594 L 1368.414062 642.457031 C 1372.523438 629.503906 1380.300781 625.503906 1393.691406 619.542969 C 1407.09375 613.578125 1423.761719 606.15625 1431.136719 582.886719 C 1438.101562 560.921875 1422.546875 536.324219 1396.464844 528.054688 C 1368.917969 519.324219 1352.230469 531.082031 1346.710938 539.410156 C 1343.527344 544.207031 1344.84375 550.703125 1349.644531 553.886719 C 1354.457031 557.070312 1360.941406 555.75 1364.125 550.949219 C 1364.191406 550.851562 1371.171875 541.957031 1390.152344 547.972656 Z M 1390.152344 547.972656 " fill-opacity="1" fill-rule="nonzero"/></g></g></g><g clip-path="url(#ef2a5659a6)"><g clip-path="url(#855e99eec5)"><g clip-path="url(#6ce11721d4)"><path fill="#1f212b" d="M 1335.566406 711.496094 C 1325.960938 708.453125 1320.617188 698.15625 1323.664062 688.546875 C 1326.710938 678.933594 1337.007812 673.597656 1346.617188 676.644531 C 1356.222656 679.6875 1361.566406 689.984375 1358.519531 699.59375 C 1355.472656 709.207031 1345.175781 714.542969 1335.566406 711.496094 Z M 1345.039062 681.621094 C 1338.175781 679.445312 1330.820312 683.261719 1328.644531 690.125 C 1326.46875 696.988281 1330.28125 704.34375 1337.144531 706.519531 C 1344.007812 708.695312 1351.363281 704.878906 1353.539062 698.015625 C 1355.714844 691.152344 1351.902344 683.796875 1345.039062 681.621094 Z M 1345.039062 681.621094 " fill-opacity="1" fill-rule="nonzero"/></g></g></g><g clip-path="url(#9b28fe7d98)"><g clip-path="url(#c3b8a24cae)"><g clip-path="url(#9efa6a13e9)"><path fill="#1f212b" d="M 1338.722656 701.539062 C 1337.109375 701.027344 1335.726562 700.007812 1334.71875 698.59375 C 1334.304688 698.003906 1334.441406 697.191406 1335.027344 696.773438 C 1335.621094 696.355469 1336.433594 696.496094 1336.851562 697.082031 C 1337.523438 698.03125 1338.445312 698.710938 1339.511719 699.050781 C 1342.257812 699.921875 1345.199219 698.394531 1346.070312 695.648438 C 1346.941406 692.902344 1345.417969 689.960938 1342.671875 689.089844 C 1342.328125 688.984375 1341.984375 688.910156 1341.640625 688.875 C 1340.933594 688.796875 1340.40625 688.15625 1340.480469 687.4375 C 1340.558594 686.71875 1341.207031 686.203125 1341.921875 686.28125 C 1342.4375 686.335938 1342.949219 686.441406 1343.460938 686.601562 C 1347.578125 687.90625 1349.867188 692.320312 1348.558594 696.4375 C 1347.253906 700.554688 1342.839844 702.84375 1338.722656 701.539062 Z M 1338.722656 701.539062 " fill-opacity="1" fill-rule="nonzero"/></g></g></g><g clip-path="url(#0df6b705b4)"><g clip-path="url(#2f89627ae3)"><g clip-path="url(#17710d80e2)"><path fill="#1f212b" d="M 1335.015625 692.144531 C 1334.925781 692.117188 1334.84375 692.082031 1334.765625 692.035156 C 1334.132812 691.679688 1333.917969 690.882812 1334.269531 690.253906 C 1334.855469 689.226562 1335.628906 688.367188 1336.574219 687.699219 C 1337.167969 687.28125 1337.980469 687.425781 1338.394531 688.011719 C 1338.8125 688.601562 1338.671875 689.414062 1338.082031 689.832031 C 1337.449219 690.277344 1336.933594 690.851562 1336.546875 691.542969 C 1336.230469 692.089844 1335.585938 692.324219 1335.015625 692.144531 Z M 1335.015625 692.144531 " fill-opacity="1" fill-rule="nonzero"/></g></g></g><g clip-path="url(#0ce08db916)"><g clip-path="url(#eb679178a6)"><g clip-path="url(#d90e955d73)"><path fill="#1f212b" d="M 1397.765625 536.921875 C 1397.734375 536.914062 1397.703125 536.902344 1397.671875 536.890625 L 1397.066406 536.644531 C 1396.484375 536.40625 1395.898438 536.167969 1395.292969 535.960938 C 1394.609375 535.726562 1394.25 534.980469 1394.484375 534.300781 C 1394.71875 533.621094 1395.433594 533.328125 1396.148438 533.492188 C 1396.796875 533.71875 1397.421875 533.96875 1398.046875 534.226562 L 1398.644531 534.46875 C 1399.3125 534.734375 1399.636719 535.492188 1399.371094 536.164062 C 1399.113281 536.800781 1398.410156 537.128906 1397.765625 536.921875 Z M 1397.765625 536.921875 " fill-opacity="1" fill-rule="nonzero"/></g></g></g><g clip-path="url(#7b7499c79c)"><g clip-path="url(#a75f688b67)"><g clip-path="url(#a633ea82a6)"><path fill="#1f212b" d="M 1411.578125 545.195312 C 1411.421875 545.144531 1411.265625 545.0625 1411.128906 544.945312 C 1408.425781 542.652344 1405.46875 540.65625 1402.339844 539.015625 C 1401.703125 538.683594 1401.453125 537.890625 1401.789062 537.253906 C 1402.125 536.613281 1402.90625 536.363281 1403.554688 536.703125 C 1406.851562 538.433594 1409.972656 540.539062 1412.820312 542.957031 C 1413.371094 543.421875 1413.4375 544.246094 1412.96875 544.796875 C 1412.617188 545.210938 1412.066406 545.351562 1411.578125 545.195312 Z M 1411.578125 545.195312 " fill-opacity="1" fill-rule="nonzero"/></g></g></g><g clip-path="url(#86039039f2)"><g clip-path="url(#c702488e97)"><g clip-path="url(#7bf071831f)"><path fill="#1f212b" d="M 1402.101562 609.296875 C 1401.792969 609.199219 1401.523438 608.992188 1401.351562 608.6875 C 1401.003906 608.058594 1401.230469 607.261719 1401.859375 606.910156 C 1409.929688 602.441406 1418.824219 595.804688 1423.667969 580.519531 C 1426.429688 571.8125 1424.769531 562.28125 1418.992188 553.679688 C 1418.59375 553.082031 1418.75 552.273438 1419.351562 551.867188 C 1419.953125 551.464844 1420.761719 551.628906 1421.164062 552.222656 C 1427.390625 561.5 1429.164062 571.828125 1426.160156 581.308594 C 1421.007812 597.558594 1411.144531 604.75 1403.128906 609.195312 C 1402.800781 609.375 1402.433594 609.402344 1402.101562 609.296875 Z M 1402.101562 609.296875 " fill-opacity="1" fill-rule="nonzero"/></g></g></g><g clip-path="url(#aebb211c5c)"><g clip-path="url(#dd8b808152)"><g clip-path="url(#d8a0ce3119)"><path fill="#040606" d="M 43.832031 169.429688 C 43.886719 172.117188 45.136719 174.972656 47.585938 178 C 54.519531 186.371094 61.460938 194.886719 68.425781 203.535156 C 75.386719 212.1875 82.171875 220.757812 88.785156 229.246094 C 95.394531 237.738281 101.613281 245.972656 107.445312 253.949219 C 113.28125 261.929688 118.597656 269.40625 123.398438 276.378906 C 125.046875 278.832031 126.664062 280.128906 128.25 280.265625 C 129.835938 280.40625 131.960938 279.535156 134.621094 277.664062 C 137.972656 275.679688 140.976562 273.640625 143.628906 271.554688 C 146.28125 269.464844 148.757812 267.191406 151.050781 264.722656 C 153.425781 262.078125 154.742188 259.652344 155.007812 257.433594 C 155.277344 255.214844 154.394531 252.363281 152.363281 248.886719 C 148.558594 241.832031 143.84375 233.617188 138.214844 224.246094 C 132.597656 214.875 126.636719 205.300781 120.347656 195.519531 C 114.058594 185.742188 107.757812 176.113281 101.433594 166.632812 C 95.117188 157.160156 89.332031 148.726562 84.082031 141.335938 C 81.570312 137.742188 79.152344 135.867188 76.828125 135.714844 C 74.507812 135.5625 71.554688 136.957031 67.976562 139.898438 C 64.515625 142.367188 60.871094 145.410156 57.035156 149.035156 C 53.203125 152.660156 50.050781 156.253906 47.578125 159.804688 C 45.027344 163.539062 43.777344 166.746094 43.832031 169.429688 Z M 172.390625 279.875 C 170.285156 277.960938 167.78125 276.628906 164.871094 275.886719 C 161.960938 275.152344 158.792969 275.167969 155.351562 275.941406 C 151.914062 276.714844 148.363281 278.445312 144.6875 281.132812 C 141.5625 283.328125 139.234375 285.695312 137.699219 288.242188 C 136.167969 290.785156 135.273438 293.277344 135.011719 295.714844 C 134.757812 298.148438 134.980469 300.40625 135.679688 302.480469 C 136.382812 304.558594 137.277344 306.269531 138.367188 307.613281 C 139.183594 308.625 140.4375 309.726562 142.125 310.921875 C 143.816406 312.117188 145.710938 313.089844 147.816406 313.835938 C 149.925781 314.585938 152.28125 315.015625 154.882812 315.140625 C 157.488281 315.261719 160.203125 314.796875 163.019531 313.742188 C 169.097656 311.617188 173.625 308.097656 176.609375 303.179688 C 179.59375 298.265625 179.808594 292.773438 177.253906 286.71875 C 176.113281 284.070312 174.496094 281.792969 172.390625 279.875 " fill-opacity="1" fill-rule="nonzero"/></g></g></g><g clip-path="url(#3efd90ce22)"><g clip-path="url(#7fec1e975f)"><g clip-path="url(#dce11b42a3)"><path fill="#b2061a" d="M 55.425781 165.09375 C 55.484375 167.78125 56.730469 170.640625 59.183594 173.667969 C 66.113281 182.039062 73.054688 190.554688 80.019531 199.203125 C 86.984375 207.855469 93.769531 216.425781 100.378906 224.914062 C 106.988281 233.40625 113.210938 241.640625 119.042969 249.617188 C 124.878906 257.597656 130.191406 265.074219 134.992188 272.046875 C 136.644531 274.5 138.257812 275.796875 139.847656 275.933594 C 141.433594 276.074219 143.554688 275.203125 146.21875 273.332031 C 149.566406 271.347656 152.574219 269.308594 155.222656 267.222656 C 157.878906 265.132812 160.355469 262.859375 162.644531 260.390625 C 165.019531 257.746094 166.339844 255.320312 166.605469 253.101562 C 166.871094 250.882812 165.992188 248.03125 163.957031 244.554688 C 160.15625 237.5 155.4375 229.289062 149.8125 219.917969 C 144.191406 210.542969 138.234375 200.96875 131.945312 191.1875 C 125.65625 181.410156 119.351562 171.777344 113.03125 162.300781 C 106.710938 152.828125 100.929688 144.394531 95.675781 137.003906 C 93.164062 133.410156 90.75 131.535156 88.421875 131.382812 C 86.105469 131.230469 83.152344 132.625 79.574219 135.566406 C 76.113281 138.035156 72.464844 141.078125 68.628906 144.703125 C 64.796875 148.332031 61.648438 151.921875 59.175781 155.472656 C 56.621094 159.207031 55.375 162.414062 55.425781 165.09375 Z M 183.984375 275.542969 C 181.878906 273.628906 179.375 272.296875 176.46875 271.558594 C 173.558594 270.820312 170.386719 270.835938 166.949219 271.605469 C 163.511719 272.382812 159.957031 274.113281 156.285156 276.800781 C 153.15625 278.996094 150.832031 281.363281 149.292969 283.910156 C 147.765625 286.453125 146.871094 288.945312 146.609375 291.382812 C 146.351562 293.816406 146.574219 296.074219 147.273438 298.152344 C 147.980469 300.226562 148.875 301.9375 149.960938 303.28125 C 150.777344 304.292969 152.035156 305.394531 153.71875 306.589844 C 155.414062 307.785156 157.308594 308.757812 159.414062 309.503906 C 161.523438 310.253906 163.875 310.683594 166.476562 310.808594 C 169.085938 310.929688 171.796875 310.464844 174.617188 309.410156 C 180.695312 307.285156 185.222656 303.765625 188.207031 298.847656 C 191.191406 293.933594 191.402344 288.441406 188.847656 282.382812 C 187.707031 279.738281 186.09375 277.460938 183.984375 275.542969 " fill-opacity="1" fill-rule="nonzero"/></g></g></g><g clip-path="url(#d402ead736)"><g clip-path="url(#dd2f77d65e)"><g clip-path="url(#9f5dd3903b)"><path fill="#040606" d="M 183.984375 275.542969 C 188.054688 279.207031 190.25 284.753906 190.144531 290.066406 C 190.066406 292.730469 189.222656 295.289062 187.828125 297.457031 C 186.402344 299.628906 184.566406 301.523438 182.515625 303.011719 C 180.460938 304.511719 178.160156 305.609375 175.769531 306.410156 C 174.597656 306.796875 173.257812 307.167969 172.113281 307.425781 C 170.929688 307.679688 169.746094 307.808594 168.59375 307.84375 C 168.019531 307.855469 167.445312 307.835938 166.886719 307.785156 C 166.324219 307.726562 165.675781 307.660156 165.085938 307.570312 C 163.886719 307.394531 162.726562 307.113281 161.621094 306.78125 C 160.539062 306.449219 159.425781 305.960938 158.375 305.449219 C 157.3125 304.929688 156.347656 304.335938 155.394531 303.632812 C 154.398438 302.925781 153.457031 302.164062 152.800781 301.453125 C 152.183594 300.796875 151.5625 299.882812 151.070312 298.886719 C 150.820312 298.382812 150.578125 297.855469 150.359375 297.308594 C 150.148438 296.792969 149.988281 296.3125 149.855469 295.78125 C 149.597656 294.738281 149.441406 293.628906 149.4375 292.476562 C 149.386719 290.230469 149.941406 287.980469 150.972656 285.714844 C 151.9375 283.503906 153.433594 281.496094 155.28125 279.675781 C 159.070312 276.054688 163.5 272.765625 168.8125 271.726562 C 171.429688 271.167969 174.191406 271.113281 176.828125 271.777344 C 179.46875 272.414062 181.957031 273.707031 183.984375 275.542969 Z M 183.984375 275.542969 C 179.949219 271.824219 174.210938 270.195312 168.675781 270.816406 C 165.902344 271.0625 163.132812 271.824219 160.542969 272.945312 C 159.25 273.511719 157.972656 274.128906 156.746094 274.835938 C 155.53125 275.539062 154.332031 276.242188 153.136719 277.085938 C 150.785156 278.730469 148.527344 280.824219 146.859375 283.410156 C 145.214844 285.886719 143.921875 288.933594 143.628906 292.160156 C 143.476562 293.730469 143.46875 295.371094 143.757812 297.003906 C 143.886719 297.8125 144.09375 298.648438 144.339844 299.417969 C 144.566406 300.164062 144.835938 300.902344 145.164062 301.636719 C 145.824219 303.109375 146.628906 304.5625 147.832031 305.9375 C 149.015625 307.25 150.21875 308.203125 151.425781 309.105469 C 152.675781 310.011719 154.066406 310.824219 155.464844 311.484375 C 156.875 312.152344 158.3125 312.660156 159.859375 313.066406 C 161.382812 313.46875 162.921875 313.675781 164.429688 313.785156 C 165.199219 313.835938 165.914062 313.867188 166.714844 313.851562 C 167.519531 313.839844 168.316406 313.777344 169.097656 313.671875 C 170.667969 313.472656 172.175781 313.070312 173.609375 312.558594 C 175.078125 312.027344 176.304688 311.453125 177.648438 310.777344 C 180.261719 309.417969 182.699219 307.667969 184.753906 305.570312 C 186.8125 303.464844 188.449219 301.039062 189.625 298.410156 C 190.804688 295.761719 191.300781 292.847656 191.078125 290.046875 C 190.535156 284.480469 188.046875 279.214844 183.984375 275.542969 " fill-opacity="1" fill-rule="nonzero"/></g></g></g><g clip-path="url(#5c88d4d17f)"><g clip-path="url(#db42698b06)"><g clip-path="url(#9bdd54c60d)"><path fill="#040606" d="M 55.425781 165.09375 C 55.414062 162.738281 56.292969 160.488281 57.386719 158.4375 C 58.488281 156.375 59.871094 154.476562 61.328125 152.652344 C 64.265625 149.015625 67.597656 145.714844 71.117188 142.644531 C 72.878906 141.113281 74.679688 139.625 76.535156 138.210938 C 77.464844 137.503906 78.398438 136.820312 79.359375 136.148438 C 80.328125 135.460938 81.214844 134.722656 82.191406 134.105469 C 84.09375 132.878906 86.257812 131.757812 88.398438 131.898438 C 89.445312 131.980469 90.429688 132.496094 91.304688 133.148438 C 92.183594 133.8125 92.957031 134.636719 93.671875 135.511719 C 95.070312 137.265625 96.261719 139.335938 97.5625 141.269531 L 101.386719 147.148438 L 108.976562 158.9375 C 111.539062 162.84375 113.953125 166.851562 116.402344 170.835938 L 123.734375 182.792969 C 126.160156 186.785156 128.707031 190.707031 131.0625 194.738281 C 133.433594 198.761719 135.78125 202.796875 138.195312 206.789062 L 145.390625 218.789062 L 147.183594 221.792969 L 148.890625 224.84375 L 152.320312 230.941406 L 159.230469 243.097656 L 160.96875 246.132812 C 161.574219 247.160156 162.003906 247.996094 162.414062 248.921875 C 162.800781 249.820312 163.09375 250.707031 163.21875 251.480469 C 163.34375 252.292969 163.324219 252.730469 163.117188 253.472656 C 162.710938 254.894531 161.570312 256.617188 160.242188 258.125 C 158.796875 259.714844 157.175781 261.308594 155.519531 262.769531 C 152.207031 265.722656 148.546875 268.351562 144.675781 270.726562 L 144.53125 270.8125 L 144.476562 270.855469 C 143.367188 271.667969 142.207031 272.382812 141.210938 272.765625 C 140.726562 272.953125 140.296875 273.035156 140.125 273.027344 C 140.019531 273.035156 139.820312 273.003906 139.460938 272.769531 C 139.113281 272.546875 138.707031 272.179688 138.300781 271.734375 C 137.886719 271.28125 137.535156 270.796875 137.070312 270.171875 L 134.300781 266.476562 L 123.222656 251.710938 L 120.429688 248.039062 L 117.542969 244.441406 L 111.773438 237.25 C 107.910156 232.46875 104.109375 227.644531 100.207031 222.90625 L 76.664062 194.597656 C 72.703125 189.914062 68.753906 185.222656 64.847656 180.488281 L 58.996094 173.394531 C 57.117188 171.015625 55.519531 168.199219 55.425781 165.09375 Z M 55.425781 165.09375 C 55.503906 168.199219 57.085938 171.035156 58.957031 173.425781 L 64.726562 180.589844 C 68.578125 185.363281 72.382812 190.171875 76.175781 194.992188 C 83.800781 204.601562 91.058594 214.496094 98.449219 224.273438 C 102.0625 229.226562 105.566406 234.257812 109.128906 239.238281 L 114.445312 246.730469 L 117.105469 250.472656 L 119.667969 254.28125 L 129.910156 269.503906 L 132.476562 273.304688 C 133.355469 274.632812 134.394531 276.21875 136.195312 277.511719 C 137.082031 278.152344 138.347656 278.757812 139.78125 278.847656 C 141.148438 278.933594 142.238281 278.644531 143.195312 278.328125 C 145.085938 277.65625 146.558594 276.746094 147.957031 275.804688 L 147.757812 275.933594 C 151.933594 273.546875 156.015625 270.855469 159.773438 267.671875 C 161.648438 266.066406 163.398438 264.40625 165.132812 262.566406 C 166.882812 260.589844 168.585938 258.4375 169.542969 255.355469 C 169.769531 254.578125 169.933594 253.785156 169.988281 252.878906 C 170.039062 252 169.972656 251.179688 169.851562 250.410156 C 169.601562 248.871094 169.136719 247.527344 168.609375 246.273438 C 168.089844 245.054688 167.433594 243.8125 166.859375 242.824219 L 165.101562 239.773438 L 158.039062 227.59375 L 154.484375 221.515625 L 152.699219 218.484375 L 150.796875 215.523438 L 143.171875 203.691406 C 140.644531 199.742188 138.054688 195.832031 135.484375 191.910156 C 132.914062 187.988281 130.191406 184.175781 127.539062 180.3125 L 119.496094 168.789062 C 116.8125 164.953125 114.167969 161.089844 111.367188 157.328125 L 103.085938 145.976562 L 98.96875 140.285156 L 96.914062 137.4375 C 96.238281 136.496094 95.519531 135.519531 94.714844 134.625 C 93.90625 133.726562 93.027344 132.875 92 132.175781 C 90.980469 131.484375 89.777344 130.933594 88.46875 130.867188 C 87.171875 130.804688 85.957031 131.171875 84.847656 131.640625 C 83.738281 132.136719 82.707031 132.753906 81.738281 133.4375 C 80.753906 134.105469 79.863281 134.894531 78.949219 135.59375 C 78.011719 136.289062 77.085938 137.015625 76.175781 137.757812 C 74.359375 139.242188 72.597656 140.789062 70.882812 142.382812 C 67.449219 145.5625 64.132812 148.898438 61.261719 152.601562 C 59.820312 154.441406 58.441406 156.347656 57.351562 158.421875 C 56.269531 160.476562 55.398438 162.738281 55.425781 165.09375 " fill-opacity="1" fill-rule="nonzero"/></g></g></g><g fill="#240872" fill-opacity="1"><g transform="translate(228.516762, 484.499996)"><g><path d="M 125.203125 -126.078125 C 128.941406 -118.460938 130.8125 -109.984375 130.8125 -100.640625 C 130.8125 -91.304688 128.941406 -82.867188 125.203125 -75.328125 C 121.472656 -67.785156 116.664062 -61.785156 110.78125 -57.328125 C 98.851562 -48.128906 86.492188 -43.53125 73.703125 -43.53125 L 46.765625 -43.53125 L 46.765625 -19.1875 C 46.765625 -15.875 46.65625 -13.390625 46.4375 -11.734375 C 46.226562 -10.085938 45.546875 -8.1875 44.390625 -6.03125 C 42.378906 -2.15625 36.78125 -0.21875 27.59375 -0.21875 C 17.53125 -0.21875 11.632812 -2.875 9.90625 -8.1875 C 9.050781 -10.632812 8.625 -14.367188 8.625 -19.390625 L 8.625 -139 C 8.625 -142.3125 8.726562 -144.789062 8.9375 -146.4375 C 9.15625 -148.09375 9.835938 -150 10.984375 -152.15625 C 13.003906 -156.03125 18.609375 -157.96875 27.796875 -157.96875 L 73.921875 -157.96875 C 86.566406 -157.96875 98.851562 -153.375 110.78125 -144.1875 C 116.664062 -139.726562 121.472656 -133.691406 125.203125 -126.078125 Z M 73.921875 -81.6875 C 78.234375 -81.6875 82.472656 -83.265625 86.640625 -86.421875 C 90.804688 -89.578125 92.890625 -94.316406 92.890625 -100.640625 C 92.890625 -106.960938 90.804688 -111.738281 86.640625 -114.96875 C 82.472656 -118.207031 78.160156 -119.828125 73.703125 -119.828125 L 46.765625 -119.828125 L 46.765625 -81.6875 Z M 73.921875 -81.6875 "/></g></g></g><g fill="#240872" fill-opacity="1"><g transform="translate(364.720445, 484.499996)"><g><path d="M 106.25 -152.15625 C 107.394531 -154.3125 109.332031 -155.816406 112.0625 -156.671875 C 114.789062 -157.535156 118.238281 -157.96875 122.40625 -157.96875 C 126.570312 -157.96875 129.875 -157.609375 132.3125 -156.890625 C 134.757812 -156.171875 136.628906 -155.304688 137.921875 -154.296875 C 139.222656 -153.296875 140.234375 -151.863281 140.953125 -150 C 141.671875 -147.550781 142.03125 -143.816406 142.03125 -138.796875 L 142.03125 -19.1875 C 142.03125 -15.875 141.921875 -13.390625 141.703125 -11.734375 C 141.484375 -10.085938 140.800781 -8.1875 139.65625 -6.03125 C 137.644531 -2.15625 132.039062 -0.21875 122.84375 -0.21875 C 112.78125 -0.21875 106.890625 -2.875 105.171875 -8.1875 C 104.304688 -10.632812 103.875 -14.367188 103.875 -19.390625 L 103.875 -63.140625 L 46.765625 -63.140625 L 46.765625 -19.1875 C 46.765625 -15.875 46.65625 -13.390625 46.4375 -11.734375 C 46.226562 -10.085938 45.546875 -8.1875 44.390625 -6.03125 C 42.378906 -2.15625 36.78125 -0.21875 27.59375 -0.21875 C 17.53125 -0.21875 11.632812 -2.875 9.90625 -8.1875 C 9.050781 -10.632812 8.625 -14.367188 8.625 -19.390625 L 8.625 -139 C 8.625 -142.3125 8.726562 -144.789062 8.9375 -146.4375 C 9.15625 -148.09375 9.835938 -150 10.984375 -152.15625 C 13.003906 -156.03125 18.609375 -157.96875 27.796875 -157.96875 C 37.859375 -157.96875 43.820312 -155.3125 45.6875 -150 C 46.40625 -147.550781 46.765625 -143.816406 46.765625 -138.796875 L 46.765625 -94.828125 L 103.875 -94.828125 L 103.875 -139 C 103.875 -142.3125 103.984375 -144.789062 104.203125 -146.4375 C 104.421875 -148.09375 105.101562 -150 106.25 -152.15625 Z M 106.25 -152.15625 "/></g></g></g><g fill="#240872" fill-opacity="1"><g transform="translate(515.363458, 484.499996)"><g><path d="M 8.625 -139 C 8.625 -142.3125 8.726562 -144.789062 8.9375 -146.4375 C 9.15625 -148.09375 9.835938 -150 10.984375 -152.15625 C 13.003906 -156.03125 18.609375 -157.96875 27.796875 -157.96875 C 37.859375 -157.96875 43.820312 -155.3125 45.6875 -150 C 46.40625 -147.550781 46.765625 -143.816406 46.765625 -138.796875 L 46.765625 -18.96875 C 46.765625 -15.519531 46.65625 -13.003906 46.4375 -11.421875 C 46.226562 -9.835938 45.546875 -7.96875 44.390625 -5.8125 C 42.378906 -1.9375 36.78125 0 27.59375 0 C 17.53125 0 11.632812 -2.726562 9.90625 -8.1875 C 9.050781 -10.488281 8.625 -14.15625 8.625 -19.1875 Z M 8.625 -139 "/></g></g></g><g fill="#240872" fill-opacity="1"><g transform="translate(570.750067, 484.499996)"><g><path d="M 10.984375 -22.203125 C 7.253906 -26.796875 5.390625 -30.921875 5.390625 -34.578125 C 5.390625 -38.242188 8.476562 -43.097656 14.65625 -49.140625 C 18.25 -52.585938 22.054688 -54.3125 26.078125 -54.3125 C 30.097656 -54.3125 35.703125 -50.71875 42.890625 -43.53125 C 44.898438 -41.09375 47.769531 -38.757812 51.5 -36.53125 C 55.238281 -34.300781 58.691406 -33.1875 61.859375 -33.1875 C 75.210938 -33.1875 81.890625 -38.644531 81.890625 -49.5625 C 81.890625 -52.875 80.054688 -55.640625 76.390625 -57.859375 C 72.734375 -60.085938 68.175781 -61.703125 62.71875 -62.703125 C 57.257812 -63.710938 51.367188 -65.332031 45.046875 -67.5625 C 38.722656 -69.789062 32.832031 -72.410156 27.375 -75.421875 C 21.914062 -78.441406 17.351562 -83.21875 13.6875 -89.75 C 10.019531 -96.289062 8.1875 -104.160156 8.1875 -113.359375 C 8.1875 -126.003906 12.890625 -137.03125 22.296875 -146.4375 C 31.710938 -155.851562 44.539062 -160.5625 60.78125 -160.5625 C 69.394531 -160.5625 77.257812 -159.445312 84.375 -157.21875 C 91.488281 -154.988281 96.410156 -152.726562 99.140625 -150.4375 L 104.53125 -146.328125 C 108.976562 -142.160156 111.203125 -138.640625 111.203125 -135.765625 C 111.203125 -132.898438 109.476562 -128.953125 106.03125 -123.921875 C 101.144531 -116.734375 96.117188 -113.140625 90.953125 -113.140625 C 87.929688 -113.140625 84.191406 -114.578125 79.734375 -117.453125 C 79.304688 -117.742188 78.484375 -118.460938 77.265625 -119.609375 C 76.046875 -120.753906 74.929688 -121.6875 73.921875 -122.40625 C 70.898438 -124.28125 67.054688 -125.21875 62.390625 -125.21875 C 57.722656 -125.21875 53.84375 -124.101562 50.75 -121.875 C 47.664062 -119.644531 46.125 -116.554688 46.125 -112.609375 C 46.125 -108.660156 47.953125 -105.460938 51.609375 -103.015625 C 55.273438 -100.578125 59.835938 -98.925781 65.296875 -98.0625 C 70.753906 -97.195312 76.71875 -95.863281 83.1875 -94.0625 C 89.65625 -92.269531 95.617188 -90.082031 101.078125 -87.5 C 106.535156 -84.914062 111.09375 -80.425781 114.75 -74.03125 C 118.414062 -67.632812 120.25 -59.765625 120.25 -50.421875 C 120.25 -41.085938 118.378906 -32.863281 114.640625 -25.75 C 110.910156 -18.644531 106.03125 -13.148438 100 -9.265625 C 88.363281 -1.648438 75.9375 2.15625 62.71875 2.15625 C 55.957031 2.15625 49.5625 1.332031 43.53125 -0.3125 C 37.5 -1.96875 32.613281 -4.019531 28.875 -6.46875 C 21.257812 -11.0625 15.945312 -15.515625 12.9375 -19.828125 Z M 10.984375 -22.203125 "/></g></g></g><g fill="#240872" fill-opacity="1"><g transform="translate(696.393646, 484.499996)"><g><path d="M 106.25 -152.15625 C 107.394531 -154.3125 109.332031 -155.816406 112.0625 -156.671875 C 114.789062 -157.535156 118.238281 -157.96875 122.40625 -157.96875 C 126.570312 -157.96875 129.875 -157.609375 132.3125 -156.890625 C 134.757812 -156.171875 136.628906 -155.304688 137.921875 -154.296875 C 139.222656 -153.296875 140.234375 -151.863281 140.953125 -150 C 141.671875 -147.550781 142.03125 -143.816406 142.03125 -138.796875 L 142.03125 -19.1875 C 142.03125 -15.875 141.921875 -13.390625 141.703125 -11.734375 C 141.484375 -10.085938 140.800781 -8.1875 139.65625 -6.03125 C 137.644531 -2.15625 132.039062 -0.21875 122.84375 -0.21875 C 112.78125 -0.21875 106.890625 -2.875 105.171875 -8.1875 C 104.304688 -10.632812 103.875 -14.367188 103.875 -19.390625 L 103.875 -63.140625 L 46.765625 -63.140625 L 46.765625 -19.1875 C 46.765625 -15.875 46.65625 -13.390625 46.4375 -11.734375 C 46.226562 -10.085938 45.546875 -8.1875 44.390625 -6.03125 C 42.378906 -2.15625 36.78125 -0.21875 27.59375 -0.21875 C 17.53125 -0.21875 11.632812 -2.875 9.90625 -8.1875 C 9.050781 -10.632812 8.625 -14.367188 8.625 -19.390625 L 8.625 -139 C 8.625 -142.3125 8.726562 -144.789062 8.9375 -146.4375 C 9.15625 -148.09375 9.835938 -150 10.984375 -152.15625 C 13.003906 -156.03125 18.609375 -157.96875 27.796875 -157.96875 C 37.859375 -157.96875 43.820312 -155.3125 45.6875 -150 C 46.40625 -147.550781 46.765625 -143.816406 46.765625 -138.796875 L 46.765625 -94.828125 L 103.875 -94.828125 L 103.875 -139 C 103.875 -142.3125 103.984375 -144.789062 104.203125 -146.4375 C 104.421875 -148.09375 105.101562 -150 106.25 -152.15625 Z M 106.25 -152.15625 "/></g></g></g><g fill="#240872" fill-opacity="1"><g transform="translate(847.036658, 484.499996)"><g><path d="M 8.625 -139 C 8.625 -142.3125 8.726562 -144.789062 8.9375 -146.4375 C 9.15625 -148.09375 9.835938 -150 10.984375 -152.15625 C 13.003906 -156.03125 18.609375 -157.96875 27.796875 -157.96875 C 37.859375 -157.96875 43.820312 -155.3125 45.6875 -150 C 46.40625 -147.550781 46.765625 -143.816406 46.765625 -138.796875 L 46.765625 -18.96875 C 46.765625 -15.519531 46.65625 -13.003906 46.4375 -11.421875 C 46.226562 -9.835938 45.546875 -7.96875 44.390625 -5.8125 C 42.378906 -1.9375 36.78125 0 27.59375 0 C 17.53125 0 11.632812 -2.726562 9.90625 -8.1875 C 9.050781 -10.488281 8.625 -14.15625 8.625 -19.1875 Z M 8.625 -139 "/></g></g></g><g fill="#240872" fill-opacity="1"><g transform="translate(902.423267, 484.499996)"><g><path d="M 110.671875 -151.390625 C 112.035156 -153.910156 114.082031 -155.597656 116.8125 -156.453125 C 119.539062 -157.316406 122.953125 -157.75 127.046875 -157.75 C 131.140625 -157.75 134.441406 -157.390625 136.953125 -156.671875 C 139.472656 -155.960938 141.34375 -155.101562 142.5625 -154.09375 C 143.78125 -153.082031 144.675781 -151.570312 145.25 -149.5625 C 146.113281 -147.269531 146.546875 -143.609375 146.546875 -138.578125 L 146.546875 -18.96875 C 146.546875 -15.519531 146.4375 -13.003906 146.21875 -11.421875 C 146.007812 -9.835938 145.332031 -7.96875 144.1875 -5.8125 C 142.164062 -1.9375 136.5625 0 127.375 0 C 121.769531 0 117.890625 -0.429688 115.734375 -1.296875 C 113.578125 -2.160156 111.78125 -3.523438 110.34375 -5.390625 C 78.019531 -48.492188 56.753906 -76.65625 46.546875 -89.875 L 46.546875 -18.96875 C 46.546875 -15.519531 46.4375 -13.003906 46.21875 -11.421875 C 46.007812 -9.835938 45.332031 -7.96875 44.1875 -5.8125 C 42.164062 -1.9375 36.5625 0 27.375 0 C 18.46875 0 13.003906 -1.9375 10.984375 -5.8125 C 9.835938 -7.96875 9.15625 -9.90625 8.9375 -11.625 C 8.726562 -13.351562 8.625 -15.875 8.625 -19.1875 L 8.625 -139.4375 C 8.625 -144.894531 9.304688 -148.878906 10.671875 -151.390625 C 12.035156 -153.910156 14.082031 -155.597656 16.8125 -156.453125 C 19.539062 -157.316406 23.0625 -157.75 27.375 -157.75 C 31.6875 -157.75 35.097656 -157.351562 37.609375 -156.5625 C 40.117188 -155.78125 41.878906 -154.882812 42.890625 -153.875 C 43.460938 -153.445312 45.113281 -151.582031 47.84375 -148.28125 C 78.15625 -107.039062 98.414062 -79.8125 108.625 -66.59375 L 108.625 -139.4375 C 108.625 -144.894531 109.304688 -148.878906 110.671875 -151.390625 Z M 110.671875 -151.390625 "/></g></g></g><g fill="#240872" fill-opacity="1"><g transform="translate(1057.592004, 484.499996)"><g><path d="M 90.953125 -95.265625 L 128.875 -95.265625 C 136.632812 -94.972656 141.378906 -92.957031 143.109375 -89.21875 C 144.535156 -86.488281 145.25 -82.46875 145.25 -77.15625 L 145.25 -29.734375 C 145.25 -25.140625 143.238281 -20.757812 139.21875 -16.59375 C 127.15625 -4.09375 109.050781 2.15625 84.90625 2.15625 C 63.5 2.15625 44.894531 -5.921875 29.09375 -22.078125 C 13.289062 -38.242188 5.390625 -57.75 5.390625 -80.59375 C 5.390625 -103.445312 13.429688 -122.523438 29.515625 -137.828125 C 45.609375 -153.128906 64.578125 -160.78125 86.421875 -160.78125 C 103.378906 -160.78125 119.398438 -155.175781 134.484375 -143.96875 C 138.359375 -141.09375 140.296875 -137.894531 140.296875 -134.375 C 140.296875 -130.851562 138.644531 -126.796875 135.34375 -122.203125 C 129.738281 -114.585938 124.640625 -110.78125 120.046875 -110.78125 C 117.316406 -110.78125 112.929688 -112.753906 106.890625 -116.703125 C 100.859375 -120.648438 93.675781 -122.625 85.34375 -122.625 C 74.425781 -122.625 64.726562 -118.78125 56.25 -111.09375 C 47.769531 -103.40625 43.53125 -93.347656 43.53125 -80.921875 C 43.53125 -68.492188 47.835938 -57.929688 56.453125 -49.234375 C 65.078125 -40.546875 74.851562 -36.203125 85.78125 -36.203125 C 93.675781 -36.203125 100.785156 -37.492188 107.109375 -40.078125 L 107.109375 -63.578125 L 90.078125 -63.578125 C 85.628906 -63.578125 82.46875 -64.148438 80.59375 -65.296875 C 78.726562 -66.453125 77.507812 -68.140625 76.9375 -70.359375 C 76.363281 -72.585938 76.078125 -75.601562 76.078125 -79.40625 C 76.078125 -83.21875 76.398438 -86.273438 77.046875 -88.578125 C 77.691406 -90.878906 78.878906 -92.457031 80.609375 -93.3125 C 83.191406 -94.613281 86.640625 -95.265625 90.953125 -95.265625 Z M 90.953125 -95.265625 "/></g></g></g></svg>