<svg xmlns="http://www.w3.org/2000/svg" xmlns:xlink="http://www.w3.org/1999/xlink" width="1920" zoomAndPan="magnify" viewBox="0 0 1440 809.999993" height="1080" preserveAspectRatio="xMidYMid meet" version="1.0"><defs><filter x="0%" y="0%" width="100%" height="100%" id="017a2adbdd"><feColorMatrix values="0 0 0 0 1 0 0 0 0 1 0 0 0 0 1 0 0 0 1 0" color-interpolation-filters="sRGB"/></filter><g/><mask id="43c4d7f928"><g filter="url(#017a2adbdd)"><rect x="-144" width="1728" fill="#000000" y="-80.999999" height="971.999992" fill-opacity="0.26"/></g></mask><clipPath id="fe09b0440b"><path d="M 0 0.722656 L 529.210938 0.722656 L 529.210938 438 L 0 438 Z M 0 0.722656 " clip-rule="nonzero"/></clipPath><clipPath id="e0bc43002b"><path d="M 148.546875 0.722656 C -61.691406 0.722656 -232.117188 171.148438 -232.117188 381.386719 C -232.117188 591.621094 -61.691406 762.050781 148.546875 762.050781 C 358.78125 762.050781 529.210938 591.621094 529.210938 381.386719 C 529.210938 171.148438 358.78125 0.722656 148.546875 0.722656 Z M 148.546875 0.722656 " clip-rule="nonzero"/></clipPath><clipPath id="a4e39539f2"><rect x="0" width="530" y="0" height="438"/></clipPath><mask id="8bbb02037b"><g filter="url(#017a2adbdd)"><rect x="-144" width="1728" fill="#000000" y="-80.999999" height="971.999992" fill-opacity="0.26"/></g></mask><clipPath id="52ac83b93c"><path d="M 0.433594 0.0078125 L 418 0.0078125 L 418 417.574219 L 0.433594 417.574219 Z M 0.433594 0.0078125 " clip-rule="nonzero"/></clipPath><clipPath id="652857e148"><path d="M 209.21875 0.0078125 C 93.910156 0.0078125 0.433594 93.484375 0.433594 208.792969 C 0.433594 324.097656 93.910156 417.574219 209.21875 417.574219 C 324.523438 417.574219 418 324.097656 418 208.792969 C 418 93.484375 324.523438 0.0078125 209.21875 0.0078125 Z M 209.21875 0.0078125 " clip-rule="nonzero"/></clipPath><clipPath id="cb2f1ba33d"><rect x="0" width="419" y="0" height="418"/></clipPath><mask id="ea188fd5c8"><g filter="url(#017a2adbdd)"><rect x="-144" width="1728" fill="#000000" y="-80.999999" height="971.999992" fill-opacity="0.26"/></g></mask><clipPath id="7c418bd6cf"><path d="M 0.707031 0.472656 L 101.726562 0.472656 L 101.726562 101.488281 L 0.707031 101.488281 Z M 0.707031 0.472656 " clip-rule="nonzero"/></clipPath><clipPath id="b88e8ad38e"><path d="M 51.21875 0.472656 C 23.320312 0.472656 0.707031 23.085938 0.707031 50.980469 C 0.707031 78.875 23.320312 101.488281 51.21875 101.488281 C 79.113281 101.488281 101.726562 78.875 101.726562 50.980469 C 101.726562 23.085938 79.113281 0.472656 51.21875 0.472656 Z M 51.21875 0.472656 " clip-rule="nonzero"/></clipPath><clipPath id="c30f0fbb6c"><rect x="0" width="102" y="0" height="102"/></clipPath><mask id="43f762ee4a"><g filter="url(#017a2adbdd)"><rect x="-144" width="1728" fill="#000000" y="-80.999999" height="971.999992" fill-opacity="0.26"/></g></mask><clipPath id="43868ec268"><path d="M 0.683594 0.238281 L 101.703125 0.238281 L 101.703125 101.257812 L 0.683594 101.257812 Z M 0.683594 0.238281 " clip-rule="nonzero"/></clipPath><clipPath id="cb7483a33f"><path d="M 51.191406 0.238281 C 23.296875 0.238281 0.683594 22.851562 0.683594 50.746094 C 0.683594 78.644531 23.296875 101.257812 51.191406 101.257812 C 79.085938 101.257812 101.703125 78.644531 101.703125 50.746094 C 101.703125 22.851562 79.085938 0.238281 51.191406 0.238281 Z M 51.191406 0.238281 " clip-rule="nonzero"/></clipPath><clipPath id="08d7da5623"><rect x="0" width="102" y="0" height="102"/></clipPath><clipPath id="e760542c8a"><path d="M 70.328125 206.984375 L 1369.796875 206.984375 L 1369.796875 603.015625 L 70.328125 603.015625 Z M 70.328125 206.984375 " clip-rule="nonzero"/></clipPath><clipPath id="44b32c9227"><path d="M 1329.601562 603.015625 L 110.398438 603.015625 C 88.320312 603.015625 70.328125 585.023438 70.328125 562.941406 L 70.328125 247.058594 C 70.328125 224.976562 88.320312 206.984375 110.398438 206.984375 L 1329.601562 206.984375 C 1351.679688 206.984375 1369.671875 224.976562 1369.671875 247.058594 L 1369.671875 562.941406 C 1369.671875 585.023438 1351.679688 603.015625 1329.601562 603.015625 Z M 1329.601562 603.015625 " clip-rule="nonzero"/></clipPath><clipPath id="3a819de425"><path d="M 1342 522 L 1436 522 L 1436 658 L 1342 658 Z M 1342 522 " clip-rule="nonzero"/></clipPath><clipPath id="c97b647398"><path d="M 1348.578125 507.394531 L 1450.8125 539.804688 L 1390.746094 729.261719 L 1288.511719 696.851562 Z M 1348.578125 507.394531 " clip-rule="nonzero"/></clipPath><clipPath id="ff5e4e1d9c"><path d="M 1348.578125 507.394531 L 1450.8125 539.804688 L 1390.746094 729.261719 L 1288.511719 696.851562 Z M 1348.578125 507.394531 " clip-rule="nonzero"/></clipPath><clipPath id="1a4630994e"><path d="M 1325 678 L 1357 678 L 1357 710 L 1325 710 Z M 1325 678 " clip-rule="nonzero"/></clipPath><clipPath id="661102c733"><path d="M 1348.578125 507.394531 L 1450.8125 539.804688 L 1390.746094 729.261719 L 1288.511719 696.851562 Z M 1348.578125 507.394531 " clip-rule="nonzero"/></clipPath><clipPath id="08a6d65ecc"><path d="M 1348.578125 507.394531 L 1450.8125 539.804688 L 1390.746094 729.261719 L 1288.511719 696.851562 Z M 1348.578125 507.394531 " clip-rule="nonzero"/></clipPath><clipPath id="325030fb59"><path d="M 1339 519 L 1439 519 L 1439 660 L 1339 660 Z M 1339 519 " clip-rule="nonzero"/></clipPath><clipPath id="52f2a705db"><path d="M 1348.578125 507.394531 L 1450.8125 539.804688 L 1390.746094 729.261719 L 1288.511719 696.851562 Z M 1348.578125 507.394531 " clip-rule="nonzero"/></clipPath><clipPath id="1b0bcf475e"><path d="M 1348.578125 507.394531 L 1450.8125 539.804688 L 1390.746094 729.261719 L 1288.511719 696.851562 Z M 1348.578125 507.394531 " clip-rule="nonzero"/></clipPath><clipPath id="a34238c474"><path d="M 1322 675 L 1360 675 L 1360 713 L 1322 713 Z M 1322 675 " clip-rule="nonzero"/></clipPath><clipPath id="1e7ab67744"><path d="M 1348.578125 507.394531 L 1450.8125 539.804688 L 1390.746094 729.261719 L 1288.511719 696.851562 Z M 1348.578125 507.394531 " clip-rule="nonzero"/></clipPath><clipPath id="0cbc2ec1e2"><path d="M 1348.578125 507.394531 L 1450.8125 539.804688 L 1390.746094 729.261719 L 1288.511719 696.851562 Z M 1348.578125 507.394531 " clip-rule="nonzero"/></clipPath><clipPath id="f212b068eb"><path d="M 1334 686 L 1349 686 L 1349 702 L 1334 702 Z M 1334 686 " clip-rule="nonzero"/></clipPath><clipPath id="542097c98e"><path d="M 1348.578125 507.394531 L 1450.8125 539.804688 L 1390.746094 729.261719 L 1288.511719 696.851562 Z M 1348.578125 507.394531 " clip-rule="nonzero"/></clipPath><clipPath id="ae1cc82222"><path d="M 1348.578125 507.394531 L 1450.8125 539.804688 L 1390.746094 729.261719 L 1288.511719 696.851562 Z M 1348.578125 507.394531 " clip-rule="nonzero"/></clipPath><clipPath id="def5aae5bf"><path d="M 1334 687 L 1339 687 L 1339 693 L 1334 693 Z M 1334 687 " clip-rule="nonzero"/></clipPath><clipPath id="b678cfc676"><path d="M 1348.578125 507.394531 L 1450.8125 539.804688 L 1390.746094 729.261719 L 1288.511719 696.851562 Z M 1348.578125 507.394531 " clip-rule="nonzero"/></clipPath><clipPath id="aff92f8f65"><path d="M 1348.578125 507.394531 L 1450.8125 539.804688 L 1390.746094 729.261719 L 1288.511719 696.851562 Z M 1348.578125 507.394531 " clip-rule="nonzero"/></clipPath><clipPath id="c69b4eaee1"><path d="M 1394 533 L 1400 533 L 1400 537 L 1394 537 Z M 1394 533 " clip-rule="nonzero"/></clipPath><clipPath id="7084bdf824"><path d="M 1348.578125 507.394531 L 1450.8125 539.804688 L 1390.746094 729.261719 L 1288.511719 696.851562 Z M 1348.578125 507.394531 " clip-rule="nonzero"/></clipPath><clipPath id="22cf132f04"><path d="M 1348.578125 507.394531 L 1450.8125 539.804688 L 1390.746094 729.261719 L 1288.511719 696.851562 Z M 1348.578125 507.394531 " clip-rule="nonzero"/></clipPath><clipPath id="883d5cefbe"><path d="M 1401 536 L 1414 536 L 1414 546 L 1401 546 Z M 1401 536 " clip-rule="nonzero"/></clipPath><clipPath id="aff737d203"><path d="M 1348.578125 507.394531 L 1450.8125 539.804688 L 1390.746094 729.261719 L 1288.511719 696.851562 Z M 1348.578125 507.394531 " clip-rule="nonzero"/></clipPath><clipPath id="9810d67265"><path d="M 1348.578125 507.394531 L 1450.8125 539.804688 L 1390.746094 729.261719 L 1288.511719 696.851562 Z M 1348.578125 507.394531 " clip-rule="nonzero"/></clipPath><clipPath id="1bb8f61873"><path d="M 1401 551 L 1428 551 L 1428 610 L 1401 610 Z M 1401 551 " clip-rule="nonzero"/></clipPath><clipPath id="f9c13f3e6d"><path d="M 1348.578125 507.394531 L 1450.8125 539.804688 L 1390.746094 729.261719 L 1288.511719 696.851562 Z M 1348.578125 507.394531 " clip-rule="nonzero"/></clipPath><clipPath id="3eb04d90bb"><path d="M 1348.578125 507.394531 L 1450.8125 539.804688 L 1390.746094 729.261719 L 1288.511719 696.851562 Z M 1348.578125 507.394531 " clip-rule="nonzero"/></clipPath><clipPath id="8cdbc044ee"><path d="M 43 135 L 180 135 L 180 316 L 43 316 Z M 43 135 " clip-rule="nonzero"/></clipPath><clipPath id="719999558d"><path d="M 35.59375 150.003906 L 127.621094 115.59375 L 197.757812 303.160156 L 105.730469 337.570312 Z M 35.59375 150.003906 " clip-rule="nonzero"/></clipPath><clipPath id="38b9dd7c9c"><path d="M 127.433594 115.664062 L 35.40625 150.074219 L 105.542969 337.640625 L 197.570312 303.226562 Z M 127.433594 115.664062 " clip-rule="nonzero"/></clipPath><clipPath id="d64b9c79e8"><path d="M 55 131 L 191 131 L 191 311 L 55 311 Z M 55 131 " clip-rule="nonzero"/></clipPath><clipPath id="5be85388b0"><path d="M 35.59375 150.003906 L 127.621094 115.59375 L 197.757812 303.160156 L 105.730469 337.570312 Z M 35.59375 150.003906 " clip-rule="nonzero"/></clipPath><clipPath id="a506e1fe7b"><path d="M 127.433594 115.664062 L 35.40625 150.074219 L 105.542969 337.640625 L 197.570312 303.226562 Z M 127.433594 115.664062 " clip-rule="nonzero"/></clipPath><clipPath id="b19a2a493a"><path d="M 143 270 L 192 270 L 192 314 L 143 314 Z M 143 270 " clip-rule="nonzero"/></clipPath><clipPath id="aa930cc499"><path d="M 35.59375 150.003906 L 127.621094 115.59375 L 197.757812 303.160156 L 105.730469 337.570312 Z M 35.59375 150.003906 " clip-rule="nonzero"/></clipPath><clipPath id="af516bd649"><path d="M 127.433594 115.664062 L 35.40625 150.074219 L 105.542969 337.640625 L 197.570312 303.226562 Z M 127.433594 115.664062 " clip-rule="nonzero"/></clipPath><clipPath id="42c9407bc7"><path d="M 55 130 L 171 130 L 171 279 L 55 279 Z M 55 130 " clip-rule="nonzero"/></clipPath><clipPath id="ceae33c973"><path d="M 35.59375 150.003906 L 127.621094 115.59375 L 197.757812 303.160156 L 105.730469 337.570312 Z M 35.59375 150.003906 " clip-rule="nonzero"/></clipPath><clipPath id="f596484adf"><path d="M 127.433594 115.664062 L 35.40625 150.074219 L 105.542969 337.640625 L 197.570312 303.226562 Z M 127.433594 115.664062 " clip-rule="nonzero"/></clipPath></defs><rect x="-144" width="1728" fill="#ffffff" y="-80.999999" height="971.999992" fill-opacity="1"/><rect x="-144" width="1728" fill="#170351" y="-80.999999" height="971.999992" fill-opacity="1"/><g mask="url(#43c4d7f928)"><g transform="matrix(1, 0, 0, 1, 0, 372)"><g clip-path="url(#a4e39539f2)"><g clip-path="url(#fe09b0440b)"><g clip-path="url(#e0bc43002b)"><path fill="#5590b4" d="M -232.117188 0.722656 L 529.210938 0.722656 L 529.210938 762.050781 L -232.117188 762.050781 Z M -232.117188 0.722656 " fill-opacity="1" fill-rule="nonzero"/></g></g></g></g></g><g mask="url(#8bbb02037b)"><g transform="matrix(1, 0, 0, 1, 941, 18)"><g clip-path="url(#cb2f1ba33d)"><g clip-path="url(#52ac83b93c)"><g clip-path="url(#652857e148)"><path fill="#5590b4" d="M 0.433594 0.0078125 L 418 0.0078125 L 418 417.574219 L 0.433594 417.574219 Z M 0.433594 0.0078125 " fill-opacity="1" fill-rule="nonzero"/></g></g></g></g></g><g mask="url(#ea188fd5c8)"><g transform="matrix(1, 0, 0, 1, 1099, 589)"><g clip-path="url(#c30f0fbb6c)"><g clip-path="url(#7c418bd6cf)"><g clip-path="url(#b88e8ad38e)"><path fill="#5590b4" d="M 0.707031 0.472656 L 101.726562 0.472656 L 101.726562 101.488281 L 0.707031 101.488281 Z M 0.707031 0.472656 " fill-opacity="1" fill-rule="nonzero"/></g></g></g></g></g><g mask="url(#43f762ee4a)"><g transform="matrix(1, 0, 0, 1, 369, 54)"><g clip-path="url(#08d7da5623)"><g clip-path="url(#43868ec268)"><g clip-path="url(#cb7483a33f)"><path fill="#5590b4" d="M 0.683594 0.238281 L 101.703125 0.238281 L 101.703125 101.257812 L 0.683594 101.257812 Z M 0.683594 0.238281 " fill-opacity="1" fill-rule="nonzero"/></g></g></g></g></g><g clip-path="url(#e760542c8a)"><g clip-path="url(#44b32c9227)"><path fill="#ffffff" d="M 70.328125 206.984375 L 1369.796875 206.984375 L 1369.796875 603.015625 L 70.328125 603.015625 Z M 70.328125 206.984375 " fill-opacity="1" fill-rule="nonzero"/></g></g><g clip-path="url(#3a819de425)"><g clip-path="url(#c97b647398)"><g clip-path="url(#ff5e4e1d9c)"><path fill="#b2061a" d="M 1352.929688 656.726562 C 1346.054688 654.546875 1342.25 647.207031 1344.429688 640.332031 L 1346.007812 635.351562 C 1353.507812 611.699219 1370.488281 604.140625 1384.136719 598.066406 C 1395.984375 592.792969 1404.546875 588.980469 1408.730469 575.78125 C 1411.726562 566.335938 1402.855469 554.742188 1389.359375 550.460938 C 1372.421875 545.089844 1366.351562 552.320312 1366.304688 552.394531 C 1362.316406 558.410156 1354.222656 560.050781 1348.203125 556.066406 C 1342.195312 552.082031 1340.546875 543.980469 1344.53125 537.96875 C 1350.453125 529.03125 1368.226562 516.363281 1397.253906 525.566406 C 1424.710938 534.269531 1441.027344 560.339844 1433.628906 583.675781 C 1425.894531 608.070312 1408.628906 615.753906 1394.753906 621.929688 C 1381.679688 627.746094 1374.679688 631.339844 1370.90625 643.246094 L 1369.324219 648.222656 C 1367.148438 655.097656 1359.808594 658.90625 1352.929688 656.726562 Z M 1352.929688 656.726562 " fill-opacity="1" fill-rule="nonzero"/></g></g></g><g clip-path="url(#1a4630994e)"><g clip-path="url(#661102c733)"><g clip-path="url(#08a6d65ecc)"><path fill="#b2061a" d="M 1356.03125 698.804688 C 1355.71875 699.785156 1355.316406 700.726562 1354.820312 701.628906 C 1354.320312 702.53125 1353.742188 703.375 1353.078125 704.160156 C 1352.417969 704.949219 1351.683594 705.664062 1350.878906 706.308594 C 1350.078125 706.949219 1349.21875 707.507812 1348.304688 707.980469 C 1347.390625 708.457031 1346.441406 708.835938 1345.453125 709.121094 C 1344.464844 709.40625 1343.457031 709.59375 1342.433594 709.683594 C 1341.40625 709.769531 1340.382812 709.757812 1339.359375 709.644531 C 1338.339844 709.53125 1337.335938 709.320312 1336.355469 709.007812 C 1335.375 708.695312 1334.433594 708.292969 1333.53125 707.796875 C 1332.632812 707.300781 1331.785156 706.722656 1331 706.058594 C 1330.210938 705.394531 1329.496094 704.664062 1328.855469 703.859375 C 1328.210938 703.054688 1327.652344 702.199219 1327.179688 701.285156 C 1326.707031 700.371094 1326.328125 699.417969 1326.039062 698.429688 C 1325.753906 697.441406 1325.566406 696.4375 1325.480469 695.410156 C 1325.390625 694.386719 1325.402344 693.363281 1325.515625 692.339844 C 1325.628906 691.316406 1325.84375 690.316406 1326.152344 689.335938 C 1326.464844 688.355469 1326.867188 687.414062 1327.363281 686.511719 C 1327.859375 685.609375 1328.441406 684.765625 1329.101562 683.980469 C 1329.765625 683.191406 1330.5 682.476562 1331.300781 681.832031 C 1332.105469 681.191406 1332.964844 680.632812 1333.878906 680.160156 C 1334.792969 679.683594 1335.742188 679.304688 1336.730469 679.019531 C 1337.71875 678.734375 1338.726562 678.546875 1339.75 678.457031 C 1340.777344 678.371094 1341.800781 678.382812 1342.824219 678.496094 C 1343.84375 678.609375 1344.847656 678.820312 1345.828125 679.132812 C 1346.808594 679.445312 1347.75 679.847656 1348.652344 680.34375 C 1349.550781 680.839844 1350.394531 681.417969 1351.183594 682.082031 C 1351.96875 682.746094 1352.683594 683.476562 1353.328125 684.28125 C 1353.972656 685.085938 1354.527344 685.941406 1355.003906 686.855469 C 1355.476562 687.769531 1355.855469 688.722656 1356.144531 689.710938 C 1356.429688 690.699219 1356.617188 691.703125 1356.703125 692.730469 C 1356.792969 693.753906 1356.78125 694.777344 1356.667969 695.800781 C 1356.550781 696.824219 1356.339844 697.824219 1356.03125 698.804688 Z M 1356.03125 698.804688 " fill-opacity="1" fill-rule="nonzero"/></g></g></g><g clip-path="url(#325030fb59)"><g clip-path="url(#52f2a705db)"><g clip-path="url(#1b0bcf475e)"><path fill="#1f212b" d="M 1352.140625 659.214844 C 1343.902344 656.605469 1339.328125 647.78125 1341.941406 639.542969 L 1343.519531 634.5625 C 1351.375 609.789062 1368.953125 601.96875 1383.074219 595.679688 C 1394.71875 590.5 1402.410156 587.074219 1406.242188 574.992188 C 1408.765625 567.035156 1400.507812 556.734375 1388.570312 552.953125 C 1374.566406 548.511719 1368.988281 553.398438 1368.359375 554.011719 C 1363.554688 561.066406 1353.910156 562.984375 1346.757812 558.242188 C 1339.554688 553.464844 1337.582031 543.722656 1342.351562 536.523438 C 1348.683594 526.976562 1367.535156 513.402344 1398.042969 523.078125 C 1426.871094 532.214844 1443.953125 559.753906 1436.117188 584.464844 C 1428.03125 609.972656 1410.171875 617.921875 1395.824219 624.3125 C 1383.101562 629.972656 1376.835938 633.171875 1373.394531 644.035156 L 1371.816406 649.015625 C 1369.203125 657.253906 1360.378906 661.828125 1352.140625 659.214844 Z M 1390.152344 547.972656 C 1404.996094 552.679688 1414.644531 565.777344 1411.222656 576.570312 C 1406.679688 590.890625 1397.199219 595.109375 1385.199219 600.453125 C 1372.03125 606.3125 1355.644531 613.605469 1348.496094 636.140625 L 1346.917969 641.121094 C 1345.179688 646.613281 1348.226562 652.496094 1353.71875 654.238281 C 1359.210938 655.976562 1365.09375 652.925781 1366.835938 647.433594 L 1368.414062 642.457031 C 1372.523438 629.503906 1380.300781 625.503906 1393.691406 619.542969 C 1407.09375 613.578125 1423.761719 606.15625 1431.136719 582.886719 C 1438.101562 560.921875 1422.546875 536.324219 1396.464844 528.054688 C 1368.917969 519.324219 1352.230469 531.082031 1346.710938 539.410156 C 1343.527344 544.207031 1344.84375 550.703125 1349.644531 553.886719 C 1354.457031 557.070312 1360.941406 555.75 1364.125 550.949219 C 1364.191406 550.851562 1371.171875 541.957031 1390.152344 547.972656 Z M 1390.152344 547.972656 " fill-opacity="1" fill-rule="nonzero"/></g></g></g><g clip-path="url(#a34238c474)"><g clip-path="url(#1e7ab67744)"><g clip-path="url(#0cbc2ec1e2)"><path fill="#1f212b" d="M 1335.566406 711.496094 C 1325.960938 708.453125 1320.617188 698.15625 1323.664062 688.546875 C 1326.710938 678.933594 1337.007812 673.597656 1346.617188 676.644531 C 1356.222656 679.6875 1361.566406 689.984375 1358.519531 699.59375 C 1355.472656 709.207031 1345.175781 714.542969 1335.566406 711.496094 Z M 1345.039062 681.621094 C 1338.175781 679.445312 1330.820312 683.261719 1328.644531 690.125 C 1326.46875 696.988281 1330.28125 704.34375 1337.144531 706.519531 C 1344.007812 708.695312 1351.363281 704.878906 1353.539062 698.015625 C 1355.714844 691.152344 1351.902344 683.796875 1345.039062 681.621094 Z M 1345.039062 681.621094 " fill-opacity="1" fill-rule="nonzero"/></g></g></g><g clip-path="url(#f212b068eb)"><g clip-path="url(#542097c98e)"><g clip-path="url(#ae1cc82222)"><path fill="#1f212b" d="M 1338.722656 701.539062 C 1337.109375 701.027344 1335.726562 700.007812 1334.71875 698.59375 C 1334.304688 698.003906 1334.441406 697.191406 1335.027344 696.773438 C 1335.621094 696.355469 1336.433594 696.496094 1336.851562 697.082031 C 1337.523438 698.03125 1338.445312 698.710938 1339.511719 699.050781 C 1342.257812 699.921875 1345.199219 698.394531 1346.070312 695.648438 C 1346.941406 692.902344 1345.417969 689.960938 1342.671875 689.089844 C 1342.328125 688.984375 1341.984375 688.910156 1341.640625 688.875 C 1340.933594 688.796875 1340.40625 688.15625 1340.480469 687.4375 C 1340.558594 686.71875 1341.207031 686.203125 1341.921875 686.28125 C 1342.4375 686.335938 1342.949219 686.441406 1343.460938 686.601562 C 1347.578125 687.90625 1349.867188 692.320312 1348.558594 696.4375 C 1347.253906 700.554688 1342.839844 702.84375 1338.722656 701.539062 Z M 1338.722656 701.539062 " fill-opacity="1" fill-rule="nonzero"/></g></g></g><g clip-path="url(#def5aae5bf)"><g clip-path="url(#b678cfc676)"><g clip-path="url(#aff92f8f65)"><path fill="#1f212b" d="M 1335.015625 692.144531 C 1334.925781 692.117188 1334.84375 692.082031 1334.765625 692.035156 C 1334.132812 691.679688 1333.917969 690.882812 1334.269531 690.253906 C 1334.855469 689.226562 1335.628906 688.367188 1336.574219 687.699219 C 1337.167969 687.28125 1337.980469 687.425781 1338.394531 688.011719 C 1338.8125 688.601562 1338.671875 689.414062 1338.082031 689.832031 C 1337.449219 690.277344 1336.933594 690.851562 1336.546875 691.542969 C 1336.230469 692.089844 1335.585938 692.324219 1335.015625 692.144531 Z M 1335.015625 692.144531 " fill-opacity="1" fill-rule="nonzero"/></g></g></g><g clip-path="url(#c69b4eaee1)"><g clip-path="url(#7084bdf824)"><g clip-path="url(#22cf132f04)"><path fill="#1f212b" d="M 1397.765625 536.921875 C 1397.734375 536.914062 1397.703125 536.902344 1397.671875 536.890625 L 1397.066406 536.644531 C 1396.484375 536.40625 1395.898438 536.167969 1395.292969 535.960938 C 1394.609375 535.726562 1394.25 534.980469 1394.484375 534.300781 C 1394.71875 533.621094 1395.433594 533.328125 1396.148438 533.492188 C 1396.796875 533.71875 1397.421875 533.96875 1398.046875 534.226562 L 1398.644531 534.46875 C 1399.3125 534.734375 1399.636719 535.492188 1399.371094 536.164062 C 1399.113281 536.800781 1398.410156 537.128906 1397.765625 536.921875 Z M 1397.765625 536.921875 " fill-opacity="1" fill-rule="nonzero"/></g></g></g><g clip-path="url(#883d5cefbe)"><g clip-path="url(#aff737d203)"><g clip-path="url(#9810d67265)"><path fill="#1f212b" d="M 1411.578125 545.195312 C 1411.421875 545.144531 1411.265625 545.0625 1411.128906 544.945312 C 1408.425781 542.652344 1405.46875 540.65625 1402.339844 539.015625 C 1401.703125 538.683594 1401.453125 537.890625 1401.789062 537.253906 C 1402.125 536.613281 1402.90625 536.363281 1403.554688 536.703125 C 1406.851562 538.433594 1409.972656 540.539062 1412.820312 542.957031 C 1413.371094 543.421875 1413.4375 544.246094 1412.96875 544.796875 C 1412.617188 545.210938 1412.066406 545.351562 1411.578125 545.195312 Z M 1411.578125 545.195312 " fill-opacity="1" fill-rule="nonzero"/></g></g></g><g clip-path="url(#1bb8f61873)"><g clip-path="url(#f9c13f3e6d)"><g clip-path="url(#3eb04d90bb)"><path fill="#1f212b" d="M 1402.101562 609.296875 C 1401.792969 609.199219 1401.523438 608.992188 1401.351562 608.6875 C 1401.003906 608.058594 1401.230469 607.261719 1401.859375 606.910156 C 1409.929688 602.441406 1418.824219 595.804688 1423.667969 580.519531 C 1426.429688 571.8125 1424.769531 562.28125 1418.992188 553.679688 C 1418.59375 553.082031 1418.75 552.273438 1419.351562 551.867188 C 1419.953125 551.464844 1420.761719 551.628906 1421.164062 552.222656 C 1427.390625 561.5 1429.164062 571.828125 1426.160156 581.308594 C 1421.007812 597.558594 1411.144531 604.75 1403.128906 609.195312 C 1402.800781 609.375 1402.433594 609.402344 1402.101562 609.296875 Z M 1402.101562 609.296875 " fill-opacity="1" fill-rule="nonzero"/></g></g></g><g clip-path="url(#8cdbc044ee)"><g clip-path="url(#719999558d)"><g clip-path="url(#38b9dd7c9c)"><path fill="#040606" d="M 43.832031 169.429688 C 43.886719 172.117188 45.136719 174.972656 47.585938 178 C 54.519531 186.371094 61.460938 194.886719 68.425781 203.535156 C 75.386719 212.1875 82.171875 220.757812 88.785156 229.246094 C 95.394531 237.738281 101.613281 245.972656 107.445312 253.949219 C 113.28125 261.929688 118.597656 269.40625 123.398438 276.378906 C 125.046875 278.832031 126.664062 280.128906 128.25 280.265625 C 129.835938 280.40625 131.960938 279.535156 134.621094 277.664062 C 137.972656 275.679688 140.976562 273.640625 143.628906 271.554688 C 146.28125 269.464844 148.757812 267.191406 151.050781 264.722656 C 153.425781 262.078125 154.742188 259.652344 155.007812 257.433594 C 155.277344 255.214844 154.394531 252.363281 152.363281 248.886719 C 148.558594 241.832031 143.84375 233.617188 138.214844 224.246094 C 132.597656 214.875 126.636719 205.300781 120.347656 195.519531 C 114.058594 185.742188 107.757812 176.113281 101.433594 166.632812 C 95.117188 157.160156 89.332031 148.726562 84.082031 141.335938 C 81.570312 137.742188 79.152344 135.867188 76.828125 135.714844 C 74.507812 135.5625 71.554688 136.957031 67.976562 139.898438 C 64.515625 142.367188 60.871094 145.410156 57.035156 149.035156 C 53.203125 152.660156 50.050781 156.253906 47.578125 159.804688 C 45.027344 163.539062 43.777344 166.746094 43.832031 169.429688 Z M 172.390625 279.875 C 170.285156 277.960938 167.78125 276.628906 164.871094 275.886719 C 161.960938 275.152344 158.792969 275.167969 155.351562 275.941406 C 151.914062 276.714844 148.363281 278.445312 144.6875 281.132812 C 141.5625 283.328125 139.234375 285.695312 137.699219 288.242188 C 136.167969 290.785156 135.273438 293.277344 135.011719 295.714844 C 134.757812 298.148438 134.980469 300.40625 135.679688 302.480469 C 136.382812 304.558594 137.277344 306.269531 138.367188 307.613281 C 139.183594 308.625 140.4375 309.726562 142.125 310.921875 C 143.816406 312.117188 145.710938 313.089844 147.816406 313.835938 C 149.925781 314.585938 152.28125 315.015625 154.882812 315.140625 C 157.488281 315.261719 160.203125 314.796875 163.019531 313.742188 C 169.097656 311.617188 173.625 308.097656 176.609375 303.179688 C 179.59375 298.265625 179.808594 292.773438 177.253906 286.71875 C 176.113281 284.070312 174.496094 281.792969 172.390625 279.875 " fill-opacity="1" fill-rule="nonzero"/></g></g></g><g clip-path="url(#d64b9c79e8)"><g clip-path="url(#5be85388b0)"><g clip-path="url(#a506e1fe7b)"><path fill="#b2061a" d="M 55.425781 165.09375 C 55.484375 167.78125 56.730469 170.640625 59.183594 173.667969 C 66.113281 182.039062 73.054688 190.554688 80.019531 199.203125 C 86.984375 207.855469 93.769531 216.425781 100.378906 224.914062 C 106.988281 233.40625 113.210938 241.640625 119.042969 249.617188 C 124.878906 257.597656 130.191406 265.074219 134.992188 272.046875 C 136.644531 274.5 138.257812 275.796875 139.847656 275.933594 C 141.433594 276.074219 143.554688 275.203125 146.21875 273.332031 C 149.566406 271.347656 152.574219 269.308594 155.222656 267.222656 C 157.878906 265.132812 160.355469 262.859375 162.644531 260.390625 C 165.019531 257.746094 166.339844 255.320312 166.605469 253.101562 C 166.871094 250.882812 165.992188 248.03125 163.957031 244.554688 C 160.15625 237.5 155.4375 229.289062 149.8125 219.917969 C 144.191406 210.542969 138.234375 200.96875 131.945312 191.1875 C 125.65625 181.410156 119.351562 171.777344 113.03125 162.300781 C 106.710938 152.828125 100.929688 144.394531 95.675781 137.003906 C 93.164062 133.410156 90.75 131.535156 88.421875 131.382812 C 86.105469 131.230469 83.152344 132.625 79.574219 135.566406 C 76.113281 138.035156 72.464844 141.078125 68.628906 144.703125 C 64.796875 148.332031 61.648438 151.921875 59.175781 155.472656 C 56.621094 159.207031 55.375 162.414062 55.425781 165.09375 Z M 183.984375 275.542969 C 181.878906 273.628906 179.375 272.296875 176.46875 271.558594 C 173.558594 270.820312 170.386719 270.835938 166.949219 271.605469 C 163.511719 272.382812 159.957031 274.113281 156.285156 276.800781 C 153.15625 278.996094 150.832031 281.363281 149.292969 283.910156 C 147.765625 286.453125 146.871094 288.945312 146.609375 291.382812 C 146.351562 293.816406 146.574219 296.074219 147.273438 298.152344 C 147.980469 300.226562 148.875 301.9375 149.960938 303.28125 C 150.777344 304.292969 152.035156 305.394531 153.71875 306.589844 C 155.414062 307.785156 157.308594 308.757812 159.414062 309.503906 C 161.523438 310.253906 163.875 310.683594 166.476562 310.808594 C 169.085938 310.929688 171.796875 310.464844 174.617188 309.410156 C 180.695312 307.285156 185.222656 303.765625 188.207031 298.847656 C 191.191406 293.933594 191.402344 288.441406 188.847656 282.382812 C 187.707031 279.738281 186.09375 277.460938 183.984375 275.542969 " fill-opacity="1" fill-rule="nonzero"/></g></g></g><g clip-path="url(#b19a2a493a)"><g clip-path="url(#aa930cc499)"><g clip-path="url(#af516bd649)"><path fill="#040606" d="M 183.984375 275.542969 C 188.054688 279.207031 190.25 284.753906 190.144531 290.066406 C 190.066406 292.730469 189.222656 295.289062 187.828125 297.457031 C 186.402344 299.628906 184.566406 301.523438 182.515625 303.011719 C 180.460938 304.511719 178.160156 305.609375 175.769531 306.410156 C 174.597656 306.796875 173.257812 307.167969 172.113281 307.425781 C 170.929688 307.679688 169.746094 307.808594 168.59375 307.84375 C 168.019531 307.855469 167.445312 307.835938 166.886719 307.785156 C 166.324219 307.726562 165.675781 307.660156 165.085938 307.570312 C 163.886719 307.394531 162.726562 307.113281 161.621094 306.78125 C 160.539062 306.449219 159.425781 305.960938 158.375 305.449219 C 157.3125 304.929688 156.347656 304.335938 155.394531 303.632812 C 154.398438 302.925781 153.457031 302.164062 152.800781 301.453125 C 152.183594 300.796875 151.5625 299.882812 151.070312 298.886719 C 150.820312 298.382812 150.578125 297.855469 150.359375 297.308594 C 150.148438 296.792969 149.988281 296.3125 149.855469 295.78125 C 149.597656 294.738281 149.441406 293.628906 149.4375 292.476562 C 149.386719 290.230469 149.941406 287.980469 150.972656 285.714844 C 151.9375 283.503906 153.433594 281.496094 155.28125 279.675781 C 159.070312 276.054688 163.5 272.765625 168.8125 271.726562 C 171.429688 271.167969 174.191406 271.113281 176.828125 271.777344 C 179.46875 272.414062 181.957031 273.707031 183.984375 275.542969 Z M 183.984375 275.542969 C 179.949219 271.824219 174.210938 270.195312 168.675781 270.816406 C 165.902344 271.0625 163.132812 271.824219 160.542969 272.945312 C 159.25 273.511719 157.972656 274.128906 156.746094 274.835938 C 155.53125 275.539062 154.332031 276.242188 153.136719 277.085938 C 150.785156 278.730469 148.527344 280.824219 146.859375 283.410156 C 145.214844 285.886719 143.921875 288.933594 143.628906 292.160156 C 143.476562 293.730469 143.46875 295.371094 143.757812 297.003906 C 143.886719 297.8125 144.09375 298.648438 144.339844 299.417969 C 144.566406 300.164062 144.835938 300.902344 145.164062 301.636719 C 145.824219 303.109375 146.628906 304.5625 147.832031 305.9375 C 149.015625 307.25 150.21875 308.203125 151.425781 309.105469 C 152.675781 310.011719 154.066406 310.824219 155.464844 311.484375 C 156.875 312.152344 158.3125 312.660156 159.859375 313.066406 C 161.382812 313.46875 162.921875 313.675781 164.429688 313.785156 C 165.199219 313.835938 165.914062 313.867188 166.714844 313.851562 C 167.519531 313.839844 168.316406 313.777344 169.097656 313.671875 C 170.667969 313.472656 172.175781 313.070312 173.609375 312.558594 C 175.078125 312.027344 176.304688 311.453125 177.648438 310.777344 C 180.261719 309.417969 182.699219 307.667969 184.753906 305.570312 C 186.8125 303.464844 188.449219 301.039062 189.625 298.410156 C 190.804688 295.761719 191.300781 292.847656 191.078125 290.046875 C 190.535156 284.480469 188.046875 279.214844 183.984375 275.542969 " fill-opacity="1" fill-rule="nonzero"/></g></g></g><g clip-path="url(#42c9407bc7)"><g clip-path="url(#ceae33c973)"><g clip-path="url(#f596484adf)"><path fill="#040606" d="M 55.425781 165.09375 C 55.414062 162.738281 56.292969 160.488281 57.386719 158.4375 C 58.488281 156.375 59.871094 154.476562 61.328125 152.652344 C 64.265625 149.015625 67.597656 145.714844 71.117188 142.644531 C 72.878906 141.113281 74.679688 139.625 76.535156 138.210938 C 77.464844 137.503906 78.398438 136.820312 79.359375 136.148438 C 80.328125 135.460938 81.214844 134.722656 82.191406 134.105469 C 84.09375 132.878906 86.257812 131.757812 88.398438 131.898438 C 89.445312 131.980469 90.429688 132.496094 91.304688 133.148438 C 92.183594 133.8125 92.957031 134.636719 93.671875 135.511719 C 95.070312 137.265625 96.261719 139.335938 97.5625 141.269531 L 101.386719 147.148438 L 108.976562 158.9375 C 111.539062 162.84375 113.953125 166.851562 116.402344 170.835938 L 123.734375 182.792969 C 126.160156 186.785156 128.707031 190.707031 131.0625 194.738281 C 133.433594 198.761719 135.78125 202.796875 138.195312 206.789062 L 145.390625 218.789062 L 147.183594 221.792969 L 148.890625 224.84375 L 152.320312 230.941406 L 159.230469 243.097656 L 160.96875 246.132812 C 161.574219 247.160156 162.003906 247.996094 162.414062 248.921875 C 162.800781 249.820312 163.09375 250.707031 163.21875 251.480469 C 163.34375 252.292969 163.324219 252.730469 163.117188 253.472656 C 162.710938 254.894531 161.570312 256.617188 160.242188 258.125 C 158.796875 259.714844 157.175781 261.308594 155.519531 262.769531 C 152.207031 265.722656 148.546875 268.351562 144.675781 270.726562 L 144.53125 270.8125 L 144.476562 270.855469 C 143.367188 271.667969 142.207031 272.382812 141.210938 272.765625 C 140.726562 272.953125 140.296875 273.035156 140.125 273.027344 C 140.019531 273.035156 139.820312 273.003906 139.460938 272.769531 C 139.113281 272.546875 138.707031 272.179688 138.300781 271.734375 C 137.886719 271.28125 137.535156 270.796875 137.070312 270.171875 L 134.300781 266.476562 L 123.222656 251.710938 L 120.429688 248.039062 L 117.542969 244.441406 L 111.773438 237.25 C 107.910156 232.46875 104.109375 227.644531 100.207031 222.90625 L 76.664062 194.597656 C 72.703125 189.914062 68.753906 185.222656 64.847656 180.488281 L 58.996094 173.394531 C 57.117188 171.015625 55.519531 168.199219 55.425781 165.09375 Z M 55.425781 165.09375 C 55.503906 168.199219 57.085938 171.035156 58.957031 173.425781 L 64.726562 180.589844 C 68.578125 185.363281 72.382812 190.171875 76.175781 194.992188 C 83.800781 204.601562 91.058594 214.496094 98.449219 224.273438 C 102.0625 229.226562 105.566406 234.257812 109.128906 239.238281 L 114.445312 246.730469 L 117.105469 250.472656 L 119.667969 254.28125 L 129.910156 269.503906 L 132.476562 273.304688 C 133.355469 274.632812 134.394531 276.21875 136.195312 277.511719 C 137.082031 278.152344 138.347656 278.757812 139.78125 278.847656 C 141.148438 278.933594 142.238281 278.644531 143.195312 278.328125 C 145.085938 277.65625 146.558594 276.746094 147.957031 275.804688 L 147.757812 275.933594 C 151.933594 273.546875 156.015625 270.855469 159.773438 267.671875 C 161.648438 266.066406 163.398438 264.40625 165.132812 262.566406 C 166.882812 260.589844 168.585938 258.4375 169.542969 255.355469 C 169.769531 254.578125 169.933594 253.785156 169.988281 252.878906 C 170.039062 252 169.972656 251.179688 169.851562 250.410156 C 169.601562 248.871094 169.136719 247.527344 168.609375 246.273438 C 168.089844 245.054688 167.433594 243.8125 166.859375 242.824219 L 165.101562 239.773438 L 158.039062 227.59375 L 154.484375 221.515625 L 152.699219 218.484375 L 150.796875 215.523438 L 143.171875 203.691406 C 140.644531 199.742188 138.054688 195.832031 135.484375 191.910156 C 132.914062 187.988281 130.191406 184.175781 127.539062 180.3125 L 119.496094 168.789062 C 116.8125 164.953125 114.167969 161.089844 111.367188 157.328125 L 103.085938 145.976562 L 98.96875 140.285156 L 96.914062 137.4375 C 96.238281 136.496094 95.519531 135.519531 94.714844 134.625 C 93.90625 133.726562 93.027344 132.875 92 132.175781 C 90.980469 131.484375 89.777344 130.933594 88.46875 130.867188 C 87.171875 130.804688 85.957031 131.171875 84.847656 131.640625 C 83.738281 132.136719 82.707031 132.753906 81.738281 133.4375 C 80.753906 134.105469 79.863281 134.894531 78.949219 135.59375 C 78.011719 136.289062 77.085938 137.015625 76.175781 137.757812 C 74.359375 139.242188 72.597656 140.789062 70.882812 142.382812 C 67.449219 145.5625 64.132812 148.898438 61.261719 152.601562 C 59.820312 154.441406 58.441406 156.347656 57.351562 158.421875 C 56.269531 160.476562 55.398438 162.738281 55.425781 165.09375 " fill-opacity="1" fill-rule="nonzero"/></g></g></g><g fill="#240872" fill-opacity="1"><g transform="translate(417.406288, 371.024255)"><g><path d="M 8.46875 -17.09375 C 5.59375 -20.632812 4.15625 -23.816406 4.15625 -26.640625 C 4.15625 -29.460938 6.53125 -33.195312 11.28125 -37.84375 C 14.050781 -40.5 16.984375 -41.828125 20.078125 -41.828125 C 23.179688 -41.828125 27.5 -39.0625 33.03125 -33.53125 C 34.582031 -31.644531 36.796875 -29.84375 39.671875 -28.125 C 42.546875 -26.414062 45.203125 -25.5625 47.640625 -25.5625 C 57.929688 -25.5625 63.078125 -29.765625 63.078125 -38.171875 C 63.078125 -40.722656 61.664062 -42.851562 58.84375 -44.5625 C 56.019531 -46.28125 52.503906 -47.523438 48.296875 -48.296875 C 44.097656 -49.078125 39.5625 -50.320312 34.6875 -52.03125 C 29.820312 -53.75 25.285156 -55.769531 21.078125 -58.09375 C 16.867188 -60.414062 13.351562 -64.09375 10.53125 -69.125 C 7.71875 -74.164062 6.3125 -80.226562 6.3125 -87.3125 C 6.3125 -97.050781 9.929688 -105.539062 17.171875 -112.78125 C 24.421875 -120.03125 34.300781 -123.65625 46.8125 -123.65625 C 53.445312 -123.65625 59.503906 -122.796875 64.984375 -121.078125 C 70.460938 -119.367188 74.253906 -117.628906 76.359375 -115.859375 L 80.5 -112.703125 C 83.925781 -109.492188 85.640625 -106.78125 85.640625 -104.5625 C 85.640625 -102.351562 84.316406 -99.3125 81.671875 -95.4375 C 77.898438 -89.90625 74.023438 -87.140625 70.046875 -87.140625 C 67.722656 -87.140625 64.847656 -88.25 61.421875 -90.46875 C 61.085938 -90.6875 60.445312 -91.238281 59.5 -92.125 C 58.5625 -93.007812 57.707031 -93.726562 56.9375 -94.28125 C 54.613281 -95.71875 51.648438 -96.4375 48.046875 -96.4375 C 44.453125 -96.4375 41.460938 -95.578125 39.078125 -93.859375 C 36.703125 -92.148438 35.515625 -89.769531 35.515625 -86.71875 C 35.515625 -83.675781 36.925781 -81.210938 39.75 -79.328125 C 42.570312 -77.453125 46.082031 -76.179688 50.28125 -75.515625 C 54.488281 -74.859375 59.082031 -73.835938 64.0625 -72.453125 C 69.050781 -71.066406 73.644531 -69.378906 77.84375 -67.390625 C 82.050781 -65.398438 85.566406 -61.941406 88.390625 -57.015625 C 91.210938 -52.085938 92.625 -46.023438 92.625 -38.828125 C 92.625 -31.640625 91.179688 -25.304688 88.296875 -19.828125 C 85.421875 -14.359375 81.660156 -10.128906 77.015625 -7.140625 C 68.054688 -1.273438 58.484375 1.65625 48.296875 1.65625 C 43.097656 1.65625 38.175781 1.019531 33.53125 -0.25 C 28.882812 -1.519531 25.117188 -3.097656 22.234375 -4.984375 C 16.367188 -8.523438 12.273438 -11.953125 9.953125 -15.265625 Z M 8.46875 -17.09375 "/></g></g></g><g fill="#240872" fill-opacity="1"><g transform="translate(514.175189, 371.024255)"><g><path d="M 63.734375 -123.15625 C 80.109375 -123.15625 94.328125 -117.234375 106.390625 -105.390625 C 118.453125 -93.554688 124.484375 -78.867188 124.484375 -61.328125 C 124.484375 -43.785156 118.726562 -28.847656 107.21875 -16.515625 C 95.71875 -4.179688 81.554688 1.984375 64.734375 1.984375 C 47.910156 1.984375 33.609375 -4.097656 21.828125 -16.265625 C 10.046875 -28.441406 4.15625 -42.9375 4.15625 -59.75 C 4.15625 -68.9375 5.8125 -77.539062 9.125 -85.5625 C 12.445312 -93.582031 16.875 -100.300781 22.40625 -105.71875 C 27.9375 -111.144531 34.296875 -115.40625 41.484375 -118.5 C 48.679688 -121.601562 56.097656 -123.15625 63.734375 -123.15625 Z M 33.53125 -60.578125 C 33.53125 -50.734375 36.707031 -42.738281 43.0625 -36.59375 C 49.425781 -30.457031 56.535156 -27.390625 64.390625 -27.390625 C 72.253906 -27.390625 79.335938 -30.375 85.640625 -36.34375 C 91.953125 -42.320312 95.109375 -50.34375 95.109375 -60.40625 C 95.109375 -70.476562 91.925781 -78.554688 85.5625 -84.640625 C 79.195312 -90.734375 72.085938 -93.78125 64.234375 -93.78125 C 56.378906 -93.78125 49.296875 -90.707031 42.984375 -84.5625 C 36.679688 -78.425781 33.53125 -70.429688 33.53125 -60.578125 Z M 33.53125 -60.578125 "/></g></g></g><g fill="#240872" fill-opacity="1"><g transform="translate(642.81309, 371.024255)"><g><path d="M 82.65625 -31.875 L 85.640625 -34.03125 C 89.410156 -36.238281 92.066406 -37.34375 93.609375 -37.34375 C 97.046875 -37.34375 100.753906 -34.242188 104.734375 -28.046875 C 107.171875 -24.171875 108.390625 -21.070312 108.390625 -18.75 C 108.390625 -16.425781 107.640625 -14.488281 106.140625 -12.9375 C 104.648438 -11.394531 102.910156 -10.015625 100.921875 -8.796875 C 98.929688 -7.578125 97.019531 -6.414062 95.1875 -5.3125 C 93.363281 -4.207031 89.628906 -2.769531 83.984375 -1 C 78.335938 0.769531 72.882812 1.65625 67.625 1.65625 C 62.375 1.65625 57.066406 0.96875 51.703125 -0.40625 C 46.335938 -1.789062 40.804688 -4.113281 35.109375 -7.375 C 29.410156 -10.644531 24.289062 -14.628906 19.75 -19.328125 C 15.21875 -24.035156 11.484375 -30.066406 8.546875 -37.421875 C 5.617188 -44.785156 4.15625 -52.78125 4.15625 -61.40625 C 4.15625 -70.039062 5.59375 -77.867188 8.46875 -84.890625 C 11.34375 -91.921875 15.019531 -97.734375 19.5 -102.328125 C 23.976562 -106.921875 29.097656 -110.765625 34.859375 -113.859375 C 45.703125 -119.835938 56.601562 -122.828125 67.5625 -122.828125 C 72.757812 -122.828125 78.039062 -122.023438 83.40625 -120.421875 C 88.769531 -118.816406 92.835938 -117.1875 95.609375 -115.53125 L 99.59375 -113.203125 C 101.582031 -111.984375 103.128906 -110.988281 104.234375 -110.21875 C 107.109375 -107.894531 108.546875 -105.265625 108.546875 -102.328125 C 108.546875 -99.398438 107.382812 -96.332031 105.0625 -93.125 C 100.75 -87.144531 96.878906 -84.15625 93.453125 -84.15625 C 91.460938 -84.15625 88.640625 -85.375 84.984375 -87.8125 C 80.335938 -91.570312 74.140625 -93.453125 66.390625 -93.453125 C 59.203125 -93.453125 52.117188 -90.960938 45.140625 -85.984375 C 41.828125 -83.546875 39.0625 -80.113281 36.84375 -75.6875 C 34.632812 -71.257812 33.53125 -66.25 33.53125 -60.65625 C 33.53125 -55.070312 34.632812 -50.066406 36.84375 -45.640625 C 39.0625 -41.210938 41.882812 -37.726562 45.3125 -35.1875 C 52.0625 -30.320312 59.085938 -27.890625 66.390625 -27.890625 C 69.828125 -27.890625 73.066406 -28.332031 76.109375 -29.21875 C 79.148438 -30.101562 81.332031 -30.988281 82.65625 -31.875 Z M 82.65625 -31.875 "/></g></g></g><g fill="#240872" fill-opacity="1"><g transform="translate(755.516492, 371.024255)"><g><path d="M 6.640625 -107.0625 C 6.640625 -109.601562 6.722656 -111.507812 6.890625 -112.78125 C 7.054688 -114.050781 7.582031 -115.519531 8.46875 -117.1875 C 10.007812 -120.175781 14.320312 -121.671875 21.40625 -121.671875 C 29.15625 -121.671875 33.75 -119.625 35.1875 -115.53125 C 35.738281 -113.644531 36.015625 -110.765625 36.015625 -106.890625 L 36.015625 -14.609375 C 36.015625 -11.953125 35.929688 -10.015625 35.765625 -8.796875 C 35.597656 -7.578125 35.070312 -6.140625 34.1875 -4.484375 C 32.644531 -1.492188 28.332031 0 21.25 0 C 13.5 0 8.960938 -2.101562 7.640625 -6.3125 C 6.972656 -8.082031 6.640625 -10.898438 6.640625 -14.765625 Z M 6.640625 -107.0625 "/></g></g></g><g fill="#240872" fill-opacity="1"><g transform="translate(798.174479, 371.024255)"><g><path d="M 76.84375 -113.03125 L 121.671875 -20.421875 C 123.546875 -16.648438 124.484375 -13.828125 124.484375 -11.953125 C 124.484375 -7.960938 121.273438 -4.363281 114.859375 -1.15625 C 111.097656 0.71875 108.140625 1.65625 105.984375 1.65625 C 103.828125 1.65625 102.054688 1.15625 100.671875 0.15625 C 99.285156 -0.832031 98.285156 -1.878906 97.671875 -2.984375 C 97.066406 -4.085938 96.210938 -5.75 95.109375 -7.96875 L 86.484375 -25.890625 L 40.5 -25.890625 L 31.875 -7.96875 C 30.757812 -5.75 29.898438 -4.140625 29.296875 -3.140625 C 28.691406 -2.148438 27.695312 -1.128906 26.3125 -0.078125 C 24.925781 0.972656 23.15625 1.5 21 1.5 C 18.84375 1.5 15.878906 0.554688 12.109375 -1.328125 C 5.691406 -4.421875 2.484375 -7.960938 2.484375 -11.953125 C 2.484375 -13.828125 3.425781 -16.648438 5.3125 -20.421875 L 50.125 -113.203125 C 51.34375 -115.742188 53.195312 -117.789062 55.6875 -119.34375 C 58.175781 -120.894531 60.804688 -121.671875 63.578125 -121.671875 C 69.546875 -121.671875 73.96875 -118.789062 76.84375 -113.03125 Z M 63.40625 -73.203125 L 52.453125 -50.453125 L 74.53125 -50.453125 Z M 63.40625 -73.203125 "/></g></g></g><g fill="#240872" fill-opacity="1"><g transform="translate(925.15251, 371.024255)"><g><path d="M 36.015625 -24.5625 L 81.171875 -24.5625 C 84.816406 -24.5625 87.46875 -24.144531 89.125 -23.3125 C 90.789062 -22.488281 91.898438 -21.191406 92.453125 -19.421875 C 93.003906 -17.648438 93.28125 -15.296875 93.28125 -12.359375 C 93.28125 -9.429688 93.003906 -7.082031 92.453125 -5.3125 C 91.898438 -3.539062 90.957031 -2.320312 89.625 -1.65625 C 87.53125 -0.550781 84.65625 0 81 0 L 21.25 0 C 13.5 0 8.960938 -2.101562 7.640625 -6.3125 C 6.972656 -8.082031 6.640625 -10.898438 6.640625 -14.765625 L 6.640625 -107.0625 C 6.640625 -109.601562 6.722656 -111.507812 6.890625 -112.78125 C 7.054688 -114.050781 7.582031 -115.519531 8.46875 -117.1875 C 10.007812 -120.175781 14.320312 -121.671875 21.40625 -121.671875 C 29.15625 -121.671875 33.75 -119.625 35.1875 -115.53125 C 35.738281 -113.644531 36.015625 -110.765625 36.015625 -106.890625 Z M 36.015625 -24.5625 "/></g></g></g><g fill="#240872" fill-opacity="1"><g transform="translate(168.335988, 564.524245)"><g><path d="M 36.015625 -29.375 L 87.140625 -29.375 C 89.679688 -29.375 91.585938 -29.289062 92.859375 -29.125 C 94.140625 -28.957031 95.609375 -28.429688 97.265625 -27.546875 C 100.253906 -26.003906 101.75 -21.691406 101.75 -14.609375 C 101.75 -6.859375 99.703125 -2.320312 95.609375 -1 C 93.722656 -0.332031 90.84375 0 86.96875 0 L 21.25 0 C 13.5 0 8.960938 -2.101562 7.640625 -6.3125 C 6.972656 -8.082031 6.640625 -10.898438 6.640625 -14.765625 L 6.640625 -107.0625 C 6.640625 -112.707031 7.691406 -116.550781 9.796875 -118.59375 C 11.898438 -120.644531 15.882812 -121.671875 21.75 -121.671875 L 87.140625 -121.671875 C 89.679688 -121.671875 91.585938 -121.585938 92.859375 -121.421875 C 94.140625 -121.253906 95.609375 -120.726562 97.265625 -119.84375 C 100.253906 -118.289062 101.75 -113.972656 101.75 -106.890625 C 101.75 -99.148438 99.703125 -94.613281 95.609375 -93.28125 C 93.722656 -92.613281 90.84375 -92.28125 86.96875 -92.28125 L 36.015625 -92.28125 L 36.015625 -75.515625 L 68.890625 -75.515625 C 71.429688 -75.515625 73.335938 -75.429688 74.609375 -75.265625 C 75.878906 -75.109375 77.347656 -74.585938 79.015625 -73.703125 C 81.992188 -72.148438 83.484375 -67.832031 83.484375 -60.75 C 83.484375 -53 81.382812 -48.460938 77.1875 -47.140625 C 75.300781 -46.472656 72.421875 -46.140625 68.546875 -46.140625 L 36.015625 -46.140625 Z M 36.015625 -29.375 "/></g></g></g><g fill="#240872" fill-opacity="1"><g transform="translate(274.234024, 564.524245)"><g><path d="M 85.234375 -116.609375 C 86.285156 -118.546875 87.863281 -119.84375 89.96875 -120.5 C 92.070312 -121.164062 94.695312 -121.5 97.84375 -121.5 C 101 -121.5 103.546875 -121.222656 105.484375 -120.671875 C 107.421875 -120.117188 108.859375 -119.453125 109.796875 -118.671875 C 110.734375 -117.898438 111.425781 -116.738281 111.875 -115.1875 C 112.539062 -113.414062 112.875 -110.597656 112.875 -106.734375 L 112.875 -14.609375 C 112.875 -11.953125 112.789062 -10.015625 112.625 -8.796875 C 112.457031 -7.578125 111.929688 -6.140625 111.046875 -4.484375 C 109.492188 -1.492188 105.175781 0 98.09375 0 C 93.78125 0 90.789062 -0.328125 89.125 -0.984375 C 87.46875 -1.648438 86.085938 -2.707031 84.984375 -4.15625 C 60.085938 -37.34375 43.710938 -59.03125 35.859375 -69.21875 L 35.859375 -14.609375 C 35.859375 -11.953125 35.773438 -10.015625 35.609375 -8.796875 C 35.441406 -7.578125 34.914062 -6.140625 34.03125 -4.484375 C 32.476562 -1.492188 28.160156 0 21.078125 0 C 14.210938 0 10.007812 -1.492188 8.46875 -4.484375 C 7.582031 -6.140625 7.054688 -7.628906 6.890625 -8.953125 C 6.722656 -10.285156 6.640625 -12.222656 6.640625 -14.765625 L 6.640625 -107.390625 C 6.640625 -111.597656 7.164062 -114.671875 8.21875 -116.609375 C 9.269531 -118.546875 10.84375 -119.84375 12.9375 -120.5 C 15.039062 -121.164062 17.753906 -121.5 21.078125 -121.5 C 24.398438 -121.5 27.03125 -121.191406 28.96875 -120.578125 C 30.90625 -119.972656 32.257812 -119.285156 33.03125 -118.515625 C 33.46875 -118.179688 34.738281 -116.742188 36.84375 -114.203125 C 60.195312 -82.441406 75.800781 -61.472656 83.65625 -51.296875 L 83.65625 -107.390625 C 83.65625 -111.597656 84.179688 -114.671875 85.234375 -116.609375 Z M 85.234375 -116.609375 "/></g></g></g><g fill="#240872" fill-opacity="1"><g transform="translate(393.742792, 564.524245)"><g><path d="M 70.046875 -73.359375 L 99.265625 -73.359375 C 105.234375 -73.140625 108.882812 -71.59375 110.21875 -68.71875 C 111.320312 -66.613281 111.875 -63.515625 111.875 -59.421875 L 111.875 -22.90625 C 111.875 -19.363281 110.320312 -15.988281 107.21875 -12.78125 C 97.925781 -3.15625 83.984375 1.65625 65.390625 1.65625 C 48.910156 1.65625 34.582031 -4.566406 22.40625 -17.015625 C 10.238281 -29.460938 4.15625 -44.484375 4.15625 -62.078125 C 4.15625 -79.671875 10.347656 -94.359375 22.734375 -106.140625 C 35.128906 -117.929688 49.738281 -123.828125 66.5625 -123.828125 C 79.613281 -123.828125 91.953125 -119.507812 103.578125 -110.875 C 106.566406 -108.664062 108.0625 -106.203125 108.0625 -103.484375 C 108.0625 -100.773438 106.785156 -97.648438 104.234375 -94.109375 C 99.921875 -88.242188 95.992188 -85.3125 92.453125 -85.3125 C 90.347656 -85.3125 86.972656 -86.832031 82.328125 -89.875 C 77.679688 -92.914062 72.148438 -94.4375 65.734375 -94.4375 C 57.316406 -94.4375 49.84375 -91.476562 43.3125 -85.5625 C 36.789062 -79.644531 33.53125 -71.898438 33.53125 -62.328125 C 33.53125 -52.753906 36.847656 -44.617188 43.484375 -37.921875 C 50.128906 -31.234375 57.65625 -27.890625 66.0625 -27.890625 C 72.144531 -27.890625 77.625 -28.882812 82.5 -30.875 L 82.5 -48.96875 L 69.375 -48.96875 C 65.945312 -48.96875 63.515625 -49.410156 62.078125 -50.296875 C 60.640625 -51.179688 59.695312 -52.476562 59.25 -54.1875 C 58.8125 -55.90625 58.59375 -58.226562 58.59375 -61.15625 C 58.59375 -64.09375 58.84375 -66.445312 59.34375 -68.21875 C 59.84375 -69.988281 60.753906 -71.207031 62.078125 -71.875 C 64.066406 -72.863281 66.722656 -73.359375 70.046875 -73.359375 Z M 70.046875 -73.359375 "/></g></g></g><g fill="#240872" fill-opacity="1"><g transform="translate(512.255649, 564.524245)"><g><path d="M 6.640625 -107.0625 C 6.640625 -109.601562 6.722656 -111.507812 6.890625 -112.78125 C 7.054688 -114.050781 7.582031 -115.519531 8.46875 -117.1875 C 10.007812 -120.175781 14.320312 -121.671875 21.40625 -121.671875 C 29.15625 -121.671875 33.75 -119.625 35.1875 -115.53125 C 35.738281 -113.644531 36.015625 -110.765625 36.015625 -106.890625 L 36.015625 -14.609375 C 36.015625 -11.953125 35.929688 -10.015625 35.765625 -8.796875 C 35.597656 -7.578125 35.070312 -6.140625 34.1875 -4.484375 C 32.644531 -1.492188 28.332031 0 21.25 0 C 13.5 0 8.960938 -2.101562 7.640625 -6.3125 C 6.972656 -8.082031 6.640625 -10.898438 6.640625 -14.765625 Z M 6.640625 -107.0625 "/></g></g></g><g fill="#240872" fill-opacity="1"><g transform="translate(554.913636, 564.524245)"><g><path d="M 85.234375 -116.609375 C 86.285156 -118.546875 87.863281 -119.84375 89.96875 -120.5 C 92.070312 -121.164062 94.695312 -121.5 97.84375 -121.5 C 101 -121.5 103.546875 -121.222656 105.484375 -120.671875 C 107.421875 -120.117188 108.859375 -119.453125 109.796875 -118.671875 C 110.734375 -117.898438 111.425781 -116.738281 111.875 -115.1875 C 112.539062 -113.414062 112.875 -110.597656 112.875 -106.734375 L 112.875 -14.609375 C 112.875 -11.953125 112.789062 -10.015625 112.625 -8.796875 C 112.457031 -7.578125 111.929688 -6.140625 111.046875 -4.484375 C 109.492188 -1.492188 105.175781 0 98.09375 0 C 93.78125 0 90.789062 -0.328125 89.125 -0.984375 C 87.46875 -1.648438 86.085938 -2.707031 84.984375 -4.15625 C 60.085938 -37.34375 43.710938 -59.03125 35.859375 -69.21875 L 35.859375 -14.609375 C 35.859375 -11.953125 35.773438 -10.015625 35.609375 -8.796875 C 35.441406 -7.578125 34.914062 -6.140625 34.03125 -4.484375 C 32.476562 -1.492188 28.160156 0 21.078125 0 C 14.210938 0 10.007812 -1.492188 8.46875 -4.484375 C 7.582031 -6.140625 7.054688 -7.628906 6.890625 -8.953125 C 6.722656 -10.285156 6.640625 -12.222656 6.640625 -14.765625 L 6.640625 -107.390625 C 6.640625 -111.597656 7.164062 -114.671875 8.21875 -116.609375 C 9.269531 -118.546875 10.84375 -119.84375 12.9375 -120.5 C 15.039062 -121.164062 17.753906 -121.5 21.078125 -121.5 C 24.398438 -121.5 27.03125 -121.191406 28.96875 -120.578125 C 30.90625 -119.972656 32.257812 -119.285156 33.03125 -118.515625 C 33.46875 -118.179688 34.738281 -116.742188 36.84375 -114.203125 C 60.195312 -82.441406 75.800781 -61.472656 83.65625 -51.296875 L 83.65625 -107.390625 C 83.65625 -111.597656 84.179688 -114.671875 85.234375 -116.609375 Z M 85.234375 -116.609375 "/></g></g></g><g fill="#240872" fill-opacity="1"><g transform="translate(674.422404, 564.524245)"><g><path d="M 36.015625 -29.375 L 87.140625 -29.375 C 89.679688 -29.375 91.585938 -29.289062 92.859375 -29.125 C 94.140625 -28.957031 95.609375 -28.429688 97.265625 -27.546875 C 100.253906 -26.003906 101.75 -21.691406 101.75 -14.609375 C 101.75 -6.859375 99.703125 -2.320312 95.609375 -1 C 93.722656 -0.332031 90.84375 0 86.96875 0 L 21.25 0 C 13.5 0 8.960938 -2.101562 7.640625 -6.3125 C 6.972656 -8.082031 6.640625 -10.898438 6.640625 -14.765625 L 6.640625 -107.0625 C 6.640625 -112.707031 7.691406 -116.550781 9.796875 -118.59375 C 11.898438 -120.644531 15.882812 -121.671875 21.75 -121.671875 L 87.140625 -121.671875 C 89.679688 -121.671875 91.585938 -121.585938 92.859375 -121.421875 C 94.140625 -121.253906 95.609375 -120.726562 97.265625 -119.84375 C 100.253906 -118.289062 101.75 -113.972656 101.75 -106.890625 C 101.75 -99.148438 99.703125 -94.613281 95.609375 -93.28125 C 93.722656 -92.613281 90.84375 -92.28125 86.96875 -92.28125 L 36.015625 -92.28125 L 36.015625 -75.515625 L 68.890625 -75.515625 C 71.429688 -75.515625 73.335938 -75.429688 74.609375 -75.265625 C 75.878906 -75.109375 77.347656 -74.585938 79.015625 -73.703125 C 81.992188 -72.148438 83.484375 -67.832031 83.484375 -60.75 C 83.484375 -53 81.382812 -48.460938 77.1875 -47.140625 C 75.300781 -46.472656 72.421875 -46.140625 68.546875 -46.140625 L 36.015625 -46.140625 Z M 36.015625 -29.375 "/></g></g></g><g fill="#240872" fill-opacity="1"><g transform="translate(780.32044, 564.524245)"><g><path d="M 36.015625 -29.375 L 87.140625 -29.375 C 89.679688 -29.375 91.585938 -29.289062 92.859375 -29.125 C 94.140625 -28.957031 95.609375 -28.429688 97.265625 -27.546875 C 100.253906 -26.003906 101.75 -21.691406 101.75 -14.609375 C 101.75 -6.859375 99.703125 -2.320312 95.609375 -1 C 93.722656 -0.332031 90.84375 0 86.96875 0 L 21.25 0 C 13.5 0 8.960938 -2.101562 7.640625 -6.3125 C 6.972656 -8.082031 6.640625 -10.898438 6.640625 -14.765625 L 6.640625 -107.0625 C 6.640625 -112.707031 7.691406 -116.550781 9.796875 -118.59375 C 11.898438 -120.644531 15.882812 -121.671875 21.75 -121.671875 L 87.140625 -121.671875 C 89.679688 -121.671875 91.585938 -121.585938 92.859375 -121.421875 C 94.140625 -121.253906 95.609375 -120.726562 97.265625 -119.84375 C 100.253906 -118.289062 101.75 -113.972656 101.75 -106.890625 C 101.75 -99.148438 99.703125 -94.613281 95.609375 -93.28125 C 93.722656 -92.613281 90.84375 -92.28125 86.96875 -92.28125 L 36.015625 -92.28125 L 36.015625 -75.515625 L 68.890625 -75.515625 C 71.429688 -75.515625 73.335938 -75.429688 74.609375 -75.265625 C 75.878906 -75.109375 77.347656 -74.585938 79.015625 -73.703125 C 81.992188 -72.148438 83.484375 -67.832031 83.484375 -60.75 C 83.484375 -53 81.382812 -48.460938 77.1875 -47.140625 C 75.300781 -46.472656 72.421875 -46.140625 68.546875 -46.140625 L 36.015625 -46.140625 Z M 36.015625 -29.375 "/></g></g></g><g fill="#240872" fill-opacity="1"><g transform="translate(886.218475, 564.524245)"><g><path d="M 99.75 -20.578125 C 101.414062 -16.597656 102.25 -13.722656 102.25 -11.953125 C 102.25 -7.742188 98.816406 -4.203125 91.953125 -1.328125 C 88.410156 0.222656 85.5625 1 83.40625 1 C 81.25 1 79.476562 0.472656 78.09375 -0.578125 C 76.707031 -1.628906 75.6875 -2.707031 75.03125 -3.8125 C 73.914062 -5.914062 69.597656 -15.929688 62.078125 -33.859375 L 56.9375 -33.53125 L 36.015625 -33.53125 L 36.015625 -14.765625 C 36.015625 -12.222656 35.929688 -10.316406 35.765625 -9.046875 C 35.597656 -7.773438 35.070312 -6.304688 34.1875 -4.640625 C 32.644531 -1.660156 28.332031 -0.171875 21.25 -0.171875 C 13.5 -0.171875 8.960938 -2.21875 7.640625 -6.3125 C 6.972656 -8.1875 6.640625 -11.0625 6.640625 -14.9375 L 6.640625 -107.0625 C 6.640625 -109.601562 6.722656 -111.507812 6.890625 -112.78125 C 7.054688 -114.050781 7.582031 -115.519531 8.46875 -117.1875 C 10.007812 -120.175781 14.320312 -121.671875 21.40625 -121.671875 L 57.265625 -121.671875 C 67.003906 -121.671875 76.460938 -118.128906 85.640625 -111.046875 C 90.066406 -107.609375 93.71875 -102.957031 96.59375 -97.09375 C 99.476562 -91.226562 100.921875 -84.703125 100.921875 -77.515625 C 100.921875 -65.015625 96.769531 -54.722656 88.46875 -46.640625 C 90.90625 -40.773438 94.664062 -32.085938 99.75 -20.578125 Z M 36.015625 -62.90625 L 57.265625 -62.90625 C 60.472656 -62.90625 63.679688 -64.125 66.890625 -66.5625 C 70.097656 -69 71.703125 -72.648438 71.703125 -77.515625 C 71.703125 -82.378906 70.097656 -86.054688 66.890625 -88.546875 C 63.679688 -91.035156 60.363281 -92.28125 56.9375 -92.28125 L 36.015625 -92.28125 Z M 36.015625 -62.90625 "/></g></g></g><g fill="#240872" fill-opacity="1"><g transform="translate(990.95466, 564.524245)"><g><path d="M 6.640625 -107.0625 C 6.640625 -109.601562 6.722656 -111.507812 6.890625 -112.78125 C 7.054688 -114.050781 7.582031 -115.519531 8.46875 -117.1875 C 10.007812 -120.175781 14.320312 -121.671875 21.40625 -121.671875 C 29.15625 -121.671875 33.75 -119.625 35.1875 -115.53125 C 35.738281 -113.644531 36.015625 -110.765625 36.015625 -106.890625 L 36.015625 -14.609375 C 36.015625 -11.953125 35.929688 -10.015625 35.765625 -8.796875 C 35.597656 -7.578125 35.070312 -6.140625 34.1875 -4.484375 C 32.644531 -1.492188 28.332031 0 21.25 0 C 13.5 0 8.960938 -2.101562 7.640625 -6.3125 C 6.972656 -8.082031 6.640625 -10.898438 6.640625 -14.765625 Z M 6.640625 -107.0625 "/></g></g></g><g fill="#240872" fill-opacity="1"><g transform="translate(1033.612648, 564.524245)"><g><path d="M 85.234375 -116.609375 C 86.285156 -118.546875 87.863281 -119.84375 89.96875 -120.5 C 92.070312 -121.164062 94.695312 -121.5 97.84375 -121.5 C 101 -121.5 103.546875 -121.222656 105.484375 -120.671875 C 107.421875 -120.117188 108.859375 -119.453125 109.796875 -118.671875 C 110.734375 -117.898438 111.425781 -116.738281 111.875 -115.1875 C 112.539062 -113.414062 112.875 -110.597656 112.875 -106.734375 L 112.875 -14.609375 C 112.875 -11.953125 112.789062 -10.015625 112.625 -8.796875 C 112.457031 -7.578125 111.929688 -6.140625 111.046875 -4.484375 C 109.492188 -1.492188 105.175781 0 98.09375 0 C 93.78125 0 90.789062 -0.328125 89.125 -0.984375 C 87.46875 -1.648438 86.085938 -2.707031 84.984375 -4.15625 C 60.085938 -37.34375 43.710938 -59.03125 35.859375 -69.21875 L 35.859375 -14.609375 C 35.859375 -11.953125 35.773438 -10.015625 35.609375 -8.796875 C 35.441406 -7.578125 34.914062 -6.140625 34.03125 -4.484375 C 32.476562 -1.492188 28.160156 0 21.078125 0 C 14.210938 0 10.007812 -1.492188 8.46875 -4.484375 C 7.582031 -6.140625 7.054688 -7.628906 6.890625 -8.953125 C 6.722656 -10.285156 6.640625 -12.222656 6.640625 -14.765625 L 6.640625 -107.390625 C 6.640625 -111.597656 7.164062 -114.671875 8.21875 -116.609375 C 9.269531 -118.546875 10.84375 -119.84375 12.9375 -120.5 C 15.039062 -121.164062 17.753906 -121.5 21.078125 -121.5 C 24.398438 -121.5 27.03125 -121.191406 28.96875 -120.578125 C 30.90625 -119.972656 32.257812 -119.285156 33.03125 -118.515625 C 33.46875 -118.179688 34.738281 -116.742188 36.84375 -114.203125 C 60.195312 -82.441406 75.800781 -61.472656 83.65625 -51.296875 L 83.65625 -107.390625 C 83.65625 -111.597656 84.179688 -114.671875 85.234375 -116.609375 Z M 85.234375 -116.609375 "/></g></g></g><g fill="#240872" fill-opacity="1"><g transform="translate(1153.12137, 564.524245)"><g><path d="M 70.046875 -73.359375 L 99.265625 -73.359375 C 105.234375 -73.140625 108.882812 -71.59375 110.21875 -68.71875 C 111.320312 -66.613281 111.875 -63.515625 111.875 -59.421875 L 111.875 -22.90625 C 111.875 -19.363281 110.320312 -15.988281 107.21875 -12.78125 C 97.925781 -3.15625 83.984375 1.65625 65.390625 1.65625 C 48.910156 1.65625 34.582031 -4.566406 22.40625 -17.015625 C 10.238281 -29.460938 4.15625 -44.484375 4.15625 -62.078125 C 4.15625 -79.671875 10.347656 -94.359375 22.734375 -106.140625 C 35.128906 -117.929688 49.738281 -123.828125 66.5625 -123.828125 C 79.613281 -123.828125 91.953125 -119.507812 103.578125 -110.875 C 106.566406 -108.664062 108.0625 -106.203125 108.0625 -103.484375 C 108.0625 -100.773438 106.785156 -97.648438 104.234375 -94.109375 C 99.921875 -88.242188 95.992188 -85.3125 92.453125 -85.3125 C 90.347656 -85.3125 86.972656 -86.832031 82.328125 -89.875 C 77.679688 -92.914062 72.148438 -94.4375 65.734375 -94.4375 C 57.316406 -94.4375 49.84375 -91.476562 43.3125 -85.5625 C 36.789062 -79.644531 33.53125 -71.898438 33.53125 -62.328125 C 33.53125 -52.753906 36.847656 -44.617188 43.484375 -37.921875 C 50.128906 -31.234375 57.65625 -27.890625 66.0625 -27.890625 C 72.144531 -27.890625 77.625 -28.882812 82.5 -30.875 L 82.5 -48.96875 L 69.375 -48.96875 C 65.945312 -48.96875 63.515625 -49.410156 62.078125 -50.296875 C 60.640625 -51.179688 59.695312 -52.476562 59.25 -54.1875 C 58.8125 -55.90625 58.59375 -58.226562 58.59375 -61.15625 C 58.59375 -64.09375 58.84375 -66.445312 59.34375 -68.21875 C 59.84375 -69.988281 60.753906 -71.207031 62.078125 -71.875 C 64.066406 -72.863281 66.722656 -73.359375 70.046875 -73.359375 Z M 70.046875 -73.359375 "/></g></g></g></svg>